<?xml version="1.0" encoding="UTF-8"?> <svg xmlns="http://www.w3.org/2000/svg" width="56" height="61" viewBox="0 0 56 61" fill="none"><g clip-path="url(#clip0_2377_1835)"><path d="M11.9375 19.2289V18.6875" stroke="#22B14C" stroke-width="1.7" stroke-miterlimit="10" stroke-linecap="round" stroke-linejoin="round"></path><path d="M32.1358 22.9199V23.166C32.1358 28.728 27.606 33.2563 22.0249 33.2563C16.4439 33.2563 11.9141 28.728 11.9141 23.166V22.9199" stroke="#22B14C" stroke-width="1.7" stroke-miterlimit="10" stroke-linecap="round" stroke-linejoin="round"></path><path d="M11.9379 19.2285V22.9201H11.2872C10.2611 22.9201 9.41016 22.0833 9.41016 21.0743C9.41016 20.5575 9.61037 20.0899 9.96075 19.7699C10.3111 19.4254 10.7616 19.2285 11.2872 19.2285H11.9379Z" stroke="#22B14C" stroke-width="1.7" stroke-miterlimit="10" stroke-linecap="round" stroke-linejoin="round"></path><path d="M34.6879 21.0743C34.6879 21.5911 34.4877 22.0587 34.1373 22.3786C33.7869 22.7232 33.3364 22.9201 32.8109 22.9201H32.1602V19.2285H32.8109C33.837 19.2285 34.6879 20.0407 34.6879 21.0743Z" stroke="#22B14C" stroke-width="1.7" stroke-miterlimit="10" stroke-linecap="round" stroke-linejoin="round"></path><path d="M25.5273 2.56738C25.9027 2.66582 26.2782 2.81349 26.6285 2.96115C27.1791 3.18264 27.6797 3.47797 28.1802 3.77329L28.3554 3.89634C28.7308 4.11783 29.0812 4.36394 29.4065 4.63465C32.5599 7.1203 34.7122 11.1564 35.0626 15.1925" stroke="#22B14C" stroke-width="1.7" stroke-miterlimit="10" stroke-linecap="round" stroke-linejoin="round"></path><path d="M9.13281 15.0938C9.48319 11.0085 11.6856 6.94783 14.889 4.5114C15.2394 4.24069 15.5898 4.0192 15.9652 3.7977L16.1904 3.67465C16.5908 3.42855 16.9913 3.20706 17.4167 3.03478C17.8172 2.86251 18.2426 2.71485 18.6681 2.5918" stroke="#22B14C" stroke-width="1.7" stroke-miterlimit="10" stroke-linecap="round" stroke-linejoin="round"></path><path d="M22.1449 11.8454C20.6182 11.8454 19.3669 10.6641 19.2918 9.16283L18.9414 2.02583C18.9414 1.33674 19.6422 0.746094 20.5181 0.746094H23.8217C24.6976 0.746094 25.3984 1.31213 25.3984 2.02583L25.048 9.16283C24.9228 10.6641 23.6715 11.8454 22.1449 11.8454Z" stroke="#22B14C" stroke-width="1.7" stroke-miterlimit="10" stroke-linecap="round" stroke-linejoin="round"></path><path d="M34.3599 18.6869H9.70838C9.00762 18.6869 8.45703 18.1454 8.45703 17.4563V16.2012C8.45703 15.5121 9.00762 14.9707 9.70838 14.9707H34.3349C35.0356 14.9707 35.5862 15.5121 35.5862 16.2012V17.4563C35.6113 18.1208 35.0356 18.6869 34.3599 18.6869Z" stroke="#22B14C" stroke-width="1.7" stroke-miterlimit="10" stroke-linecap="round" stroke-linejoin="round"></path><path d="M28.5547 31.5586V34.7333C28.5547 35.2009 28.83 35.6193 29.2304 35.8408C31.0324 36.7268 35.9126 39.0647 38.8658 39.7538C41.6188 40.4183 43.5709 42.8301 43.5709 45.6357V59.7867" stroke="#22B14C" stroke-width="1.7" stroke-miterlimit="10" stroke-linecap="round" stroke-linejoin="round"></path><path d="M15.5162 31.5586V34.7333C15.5162 35.2009 15.2409 35.6193 14.8404 35.8408C13.0385 36.7268 8.15824 39.0647 5.20506 39.7538C2.4521 40.3937 0.5 42.8301 0.5 45.6111V59.762" stroke="#22B14C" stroke-width="1.7" stroke-miterlimit="10" stroke-linecap="round" stroke-linejoin="round"></path><path d="M29.1045 35.7422L22.0469 41.5748L27.6779 43.7159L33.6343 37.8587" stroke="#22B14C" stroke-width="1.7" stroke-miterlimit="10" stroke-linecap="round" stroke-linejoin="round"></path><path d="M14.9674 35.7422L22.05 41.5748L16.3939 43.7159L10.4375 37.8587" stroke="#22B14C" stroke-width="1.7" stroke-miterlimit="10" stroke-linecap="round" stroke-linejoin="round"></path><path d="M25.776 43.0273L24.1493 46.6205C24.0742 46.9404 23.899 47.1373 23.6988 47.1373H23.5486H20.5204H20.3702C20.195 47.1373 20.0198 46.9404 19.9197 46.6205L18.293 43.0273" stroke="#22B14C" stroke-width="1.7" stroke-miterlimit="10" stroke-linecap="round" stroke-linejoin="round"></path><path d="M19.1445 59.7864L20.521 47.1367H23.5493L24.9258 59.7864" stroke="#22B14C" stroke-width="1.7" stroke-miterlimit="10" stroke-linecap="round" stroke-linejoin="round"></path><path d="M9.08594 49.0811V59.7866" stroke="#22B14C" stroke-width="1.7" stroke-miterlimit="10" stroke-linecap="round" stroke-linejoin="round"></path><path d="M34.9883 49.0811V59.7866" stroke="#22B14C" stroke-width="1.7" stroke-miterlimit="10" stroke-linecap="round" stroke-linejoin="round"></path><path d="M43.5725 55.4053H34.9883" stroke="#22B14C" stroke-width="1.7" stroke-miterlimit="10" stroke-linecap="round" stroke-linejoin="round"></path><path d="M34.9883 51.8369H43.5725" stroke="#22B14C" stroke-width="1.7" stroke-miterlimit="10" stroke-linecap="round" stroke-linejoin="round"></path><path d="M0.5 51.8369H9.08424" stroke="#22B14C" stroke-width="1.7" stroke-miterlimit="10" stroke-linecap="round" stroke-linejoin="round"></path><path d="M9.08424 55.4053H0.5" stroke="#22B14C" stroke-width="1.7" stroke-miterlimit="10" stroke-linecap="round" stroke-linejoin="round"></path><path d="M38.7416 36.3328C39.4173 36.2836 40.068 36.1605 40.7187 36.0129L42.896 39.9013L47.0505 38.0801L45.5239 33.7733C46.8503 32.7889 48.0015 31.5584 48.8775 30.131L53.2071 31.3615L54.8339 27.1778L50.6544 25.1843C50.9047 23.5108 50.8046 21.8373 50.4041 20.2623L54.3584 18.1212L52.5564 14.0112L48.1767 15.5125C47.1756 14.2081 45.9243 13.076 44.4727 12.2147L45.7241 7.95709L41.4695 6.35742L39.4423 10.4673C38.4412 10.3197 37.4151 10.2951 36.4141 10.3935" stroke="#22B14C" stroke-width="1.7" stroke-miterlimit="10" stroke-linecap="round" stroke-linejoin="round"></path><path d="M37.2656 14.9466C38.3918 14.8974 39.5431 15.0697 40.6443 15.5127C45.049 17.1862 47.2263 22.0344 45.5495 26.3658C44.3483 29.4667 41.4702 31.4355 38.3418 31.7063" stroke="#22B14C" stroke-width="1.7" stroke-miterlimit="10" stroke-linecap="round" stroke-linejoin="round"></path></g><defs><clipPath id="clip0_2377_1835"><rect width="55.3846" height="60" fill="white" transform="translate(0 0.27832)"></rect></clipPath></defs></svg> 