<?xml version="1.0" encoding="UTF-8"?> <svg xmlns="http://www.w3.org/2000/svg" width="69" height="69" viewBox="0 0 69 69" fill="none"><path d="M34.7852 34.7855V17.3105" stroke="#22B14C" stroke-width="2.4661" stroke-miterlimit="10" stroke-linecap="round" stroke-linejoin="round"></path><path d="M34.7843 34.7852H17.1445" stroke="#22B14C" stroke-width="2.4661" stroke-miterlimit="10" stroke-linecap="round" stroke-linejoin="round"></path><path d="M67.4263 34.7852C67.4263 52.9196 52.7539 67.4271 34.7844 67.4271C16.6501 67.4271 2.14258 52.7547 2.14258 34.7852C2.14258 16.8157 16.6501 1.97852 34.7844 1.97852C52.7539 1.97852 67.4263 16.6509 67.4263 34.7852Z" stroke="#22B14C" stroke-width="2.4661" stroke-miterlimit="10" stroke-linecap="round" stroke-linejoin="round"></path><path d="M54.8984 54.8984L57.8659 57.8659" stroke="#22B14C" stroke-width="2.4661" stroke-miterlimit="10" stroke-linecap="round" stroke-linejoin="round"></path><path d="M11.541 11.541L14.6733 14.6733" stroke="#22B14C" stroke-width="2.4661" stroke-miterlimit="10" stroke-linecap="round" stroke-linejoin="round"></path><path d="M54.8984 14.6733L57.8659 11.541" stroke="#22B14C" stroke-width="2.4661" stroke-miterlimit="10" stroke-linecap="round" stroke-linejoin="round"></path><path d="M11.541 57.8659L14.6733 54.8984" stroke="#22B14C" stroke-width="2.4661" stroke-miterlimit="10" stroke-linecap="round" stroke-linejoin="round"></path><path d="M63.1406 34.7852H67.4269" stroke="#22B14C" stroke-width="2.4661" stroke-miterlimit="10" stroke-linecap="round" stroke-linejoin="round"></path><path d="M1.97852 34.7852H6.26482" stroke="#22B14C" stroke-width="2.4661" stroke-miterlimit="10" stroke-linecap="round" stroke-linejoin="round"></path><path d="M34.7852 6.26482V1.97852" stroke="#22B14C" stroke-width="2.4661" stroke-miterlimit="10" stroke-linecap="round" stroke-linejoin="round"></path><path d="M34.7852 67.4269V63.1406" stroke="#22B14C" stroke-width="2.4661" stroke-miterlimit="10" stroke-linecap="round" stroke-linejoin="round"></path></svg> 