<?xml version="1.0" encoding="UTF-8"?> <svg xmlns="http://www.w3.org/2000/svg" width="93" height="24" viewBox="0 0 93 24" fill="none"><path fill-rule="evenodd" clip-rule="evenodd" d="M10.5317 18.4645H16.5396V8.3397L4.5237 4.88514V0.62207H0.542969V18.4645H6.55092V12.8416H10.5317V18.4645Z" fill="#333333"></path><path d="M34.72 6.68152C35.6587 6.68152 36.4947 6.86486 37.228 7.23152C37.976 7.59819 38.5627 8.16286 38.988 8.92552C39.4133 9.67352 39.626 10.6415 39.626 11.8295V18.5615H36.876V12.1815C36.876 11.1402 36.6267 10.3629 36.128 9.84952C35.644 9.33619 34.962 9.07952 34.082 9.07952C33.4367 9.07952 32.8647 9.21152 32.366 9.47552C31.8673 9.73952 31.4787 10.1355 31.2 10.6635C30.936 11.1769 30.804 11.8295 30.804 12.6215V18.5615H28.054V2.23752H30.804V9.98152L30.21 9.01352C30.6207 8.26552 31.2147 7.69352 31.992 7.29752C32.784 6.88686 33.6933 6.68152 34.72 6.68152ZM47.9232 18.7155C46.7206 18.7155 45.6499 18.4589 44.7112 17.9455C43.7726 17.4175 43.0319 16.6989 42.4892 15.7895C41.9466 14.8802 41.6752 13.8462 41.6752 12.6875C41.6752 11.5142 41.9466 10.4802 42.4892 9.58552C43.0319 8.67619 43.7726 7.96486 44.7112 7.45152C45.6499 6.93819 46.7206 6.68152 47.9232 6.68152C49.1406 6.68152 50.2186 6.93819 51.1572 7.45152C52.1106 7.96486 52.8512 8.66886 53.3792 9.56352C53.9219 10.4582 54.1932 11.4995 54.1932 12.6875C54.1932 13.8462 53.9219 14.8802 53.3792 15.7895C52.8512 16.6989 52.1106 17.4175 51.1572 17.9455C50.2186 18.4589 49.1406 18.7155 47.9232 18.7155ZM47.9232 16.3615C48.5979 16.3615 49.1992 16.2149 49.7272 15.9215C50.2552 15.6282 50.6659 15.2029 50.9592 14.6455C51.2672 14.0882 51.4212 13.4355 51.4212 12.6875C51.4212 11.9249 51.2672 11.2722 50.9592 10.7295C50.6659 10.1722 50.2552 9.74686 49.7272 9.45352C49.1992 9.16019 48.6052 9.01352 47.9452 9.01352C47.2706 9.01352 46.6692 9.16019 46.1412 9.45352C45.6279 9.74686 45.2172 10.1722 44.9092 10.7295C44.6012 11.2722 44.4472 11.9249 44.4472 12.6875C44.4472 13.4355 44.6012 14.0882 44.9092 14.6455C45.2172 15.2029 45.6279 15.6282 46.1412 15.9215C46.6692 16.2149 47.2632 16.3615 47.9232 16.3615ZM61.3021 18.7155C60.3048 18.7155 59.4248 18.5322 58.6621 18.1655C57.8995 17.7842 57.3055 17.2122 56.8801 16.4495C56.4548 15.6722 56.2421 14.6969 56.2421 13.5235V6.81352H58.9921V13.1495C58.9921 14.2055 59.2268 14.9975 59.6961 15.5255C60.1801 16.0389 60.8621 16.2955 61.7421 16.2955C62.3875 16.2955 62.9448 16.1635 63.4141 15.8995C63.8981 15.6355 64.2721 15.2395 64.5361 14.7115C64.8148 14.1835 64.9541 13.5309 64.9541 12.7535V6.81352H67.7041V18.5615H65.0861V15.3935L65.5481 16.3615C65.1521 17.1242 64.5728 17.7109 63.8101 18.1215C63.0475 18.5175 62.2115 18.7155 61.3021 18.7155ZM69.8439 18.5615V16.8235L77.0819 8.06752L77.5879 9.01352H69.9759V6.81352H79.7879V8.55152L72.5499 17.3075L71.9999 16.3615H79.9859V18.5615H69.8439ZM81.0601 18.5615V16.8235L88.2981 8.06752L88.8041 9.01352H81.1921V6.81352H91.0041V8.55152L83.7661 17.3075L83.2161 16.3615H91.2021V18.5615H81.0601Z" fill="#333333"></path></svg> 