<?xml version="1.0" encoding="UTF-8"?> <svg xmlns="http://www.w3.org/2000/svg" width="94" height="95" viewBox="0 0 94 95" fill="none"><circle cx="47" cy="47.3496" r="47" fill="white"></circle><g clip-path="url(#clip0_3525_2024)"><path d="M79.0022 24.9453H16.5678C14.6054 24.9453 13 26.5507 13 28.5129V67.7576C13 69.7197 14.6054 71.3254 16.5678 71.3254H79.0024C80.9645 71.3254 82.5701 69.72 82.5701 67.7576V28.5129C82.57 26.5507 80.9646 24.9453 79.0022 24.9453ZM77.6634 27.6209L49.8373 48.4922C49.337 48.8729 48.569 49.1111 47.7849 49.1076C47.0008 49.1111 46.233 48.8729 45.7325 48.4922L17.9065 27.6209H77.6634ZM62.7996 49.8693L77.9623 68.5998C77.9776 68.6186 77.9962 68.6328 78.0124 68.6498H17.5577C17.5737 68.632 17.5924 68.6186 17.6077 68.5998L32.7704 49.8693C33.235 49.2949 33.1469 48.4529 32.5715 47.9872C31.9971 47.5227 31.1551 47.6107 30.6903 48.1852L15.6757 66.7328V29.2933L44.128 50.6325C45.1975 51.4291 46.4986 51.7796 47.7847 51.7832C49.0691 51.7804 50.3713 51.4299 51.4415 50.6325L79.8937 29.2933V66.7326L64.8795 48.1852C64.4148 47.6109 63.572 47.5225 62.9984 47.9872C62.4231 48.4518 62.3348 49.2949 62.7996 49.8693Z" fill="#22B14C"></path></g><defs><clipPath id="clip0_3525_2024"><rect width="69.57" height="69.57" fill="white" transform="translate(13 13.3496)"></rect></clipPath></defs></svg> 