<?xml version="1.0" encoding="UTF-8"?> <svg xmlns="http://www.w3.org/2000/svg" width="16" height="16" viewBox="0 0 16 16" fill="none"><path d="M8.29769 9.56866V7.52217H15.1496C15.2166 7.87884 15.2512 8.30075 15.2512 8.75746C15.2512 10.2929 14.8341 12.1915 13.4901 13.5442C12.1828 14.9143 10.5125 15.645 8.29985 15.645C4.19864 15.645 0.75 12.2828 0.75 8.15504C0.75 4.02727 4.19864 0.665039 8.29985 0.665039C10.5687 0.665039 12.185 1.56106 13.3994 2.72892L11.9646 4.17299C11.0938 3.35091 9.91397 2.71152 8.29769 2.71152C5.30282 2.71152 2.9605 5.14077 2.9605 8.15504C2.9605 11.1693 5.30282 13.5986 8.29769 13.5986C10.2403 13.5986 11.3466 12.8135 12.0553 12.1001C12.6301 11.5216 13.0082 10.6952 13.1573 9.56648L8.29769 9.56866Z" fill="#333333"></path></svg> 