<?xml version="1.0" encoding="UTF-8"?> <svg xmlns="http://www.w3.org/2000/svg" width="71" height="25" viewBox="0 0 71 25" fill="none"><g clip-path="url(#clip0_2377_2325)"><path d="M30.2528 12.4472C30.2528 15.7785 27.6634 18.2333 24.4858 18.2333C21.3081 18.2333 18.7188 15.7785 18.7188 12.4472C18.7188 9.09244 21.3081 6.66113 24.4858 6.66113C27.6634 6.66113 30.2528 9.09244 30.2528 12.4472ZM27.7282 12.4472C27.7282 10.3655 26.2275 8.94113 24.4858 8.94113C22.744 8.94113 21.2433 10.3655 21.2433 12.4472C21.2433 14.5081 22.744 15.9533 24.4858 15.9533C26.2275 15.9533 27.7282 14.5055 27.7282 12.4472Z" fill="#333333"></path><path d="M42.6942 12.4472C42.6942 15.7785 40.1048 18.2333 36.9272 18.2333C33.7495 18.2333 31.1602 15.7785 31.1602 12.4472C31.1602 9.09505 33.7495 6.66113 36.9272 6.66113C40.1048 6.66113 42.6942 9.09244 42.6942 12.4472ZM40.1696 12.4472C40.1696 10.3655 38.6689 8.94113 36.9272 8.94113C35.1854 8.94113 33.6847 10.3655 33.6847 12.4472C33.6847 14.5081 35.1854 15.9533 36.9272 15.9533C38.6689 15.9533 40.1696 14.5055 40.1696 12.4472Z" fill="#333333"></path><path d="M54.6146 7.0107V17.3985C54.6146 21.6716 52.1108 23.4168 49.1508 23.4168C46.3645 23.4168 44.6875 21.5411 44.0551 20.0072L46.2531 19.0863C46.6444 20.0281 47.6034 21.1394 49.1482 21.1394C51.0429 21.1394 52.217 19.9629 52.217 17.7481V16.9159H52.1289C51.5639 17.6177 50.4753 18.2307 49.1016 18.2307C46.2271 18.2307 43.5938 15.7107 43.5938 12.4681C43.5938 9.202 46.2271 6.66113 49.1016 6.66113C50.4727 6.66113 51.5613 7.27418 52.1289 7.95505H52.217V7.01331H54.6146V7.0107ZM52.3959 12.4681C52.3959 10.4307 51.0455 8.94113 49.3271 8.94113C47.5853 8.94113 46.126 10.4307 46.126 12.4681C46.126 14.4846 47.5853 15.9533 49.3271 15.9533C51.0455 15.9533 52.3959 14.4846 52.3959 12.4681Z" fill="#333333"></path><path d="M58.5678 0.921875V17.8784H56.1055V0.921875H58.5678Z" fill="#333333"></path><path d="M68.1641 14.3522L70.1236 15.667C69.4911 16.6087 67.9671 18.2314 65.3337 18.2314C62.0679 18.2314 59.6289 15.6905 59.6289 12.4453C59.6289 9.0044 62.0886 6.65918 65.0512 6.65918C68.0345 6.65918 69.4937 9.04874 69.9706 10.34L70.2324 10.9974L62.5474 14.2009C63.1358 15.3618 64.0507 15.954 65.3337 15.954C66.6193 15.954 67.5109 15.3174 68.1641 14.3522ZM62.1327 12.2705L67.2699 10.1235C66.9873 9.40092 66.1372 8.89744 65.1367 8.89744C63.8537 8.89744 62.0679 10.0374 62.1327 12.2705Z" fill="#333333"></path><path d="M9.3973 10.9427V8.48791H17.6163C17.6966 8.91574 17.7381 9.42183 17.7381 9.96965C17.7381 11.8114 17.2378 14.0888 15.6257 15.7114C14.0576 17.3549 12.054 18.2314 9.39989 18.2314C4.48044 18.2314 0.34375 14.1983 0.34375 9.24704C0.34375 4.29574 4.48044 0.262695 9.39989 0.262695C12.1214 0.262695 14.0601 1.33748 15.5168 2.73835L13.7958 4.47052C12.7512 3.48443 11.336 2.71748 9.3973 2.71748C5.80491 2.71748 2.99528 5.63139 2.99528 9.24704C2.99528 12.8627 5.80491 15.7766 9.3973 15.7766C11.7274 15.7766 13.0545 14.8349 13.9046 13.9792C14.5941 13.2853 15.0477 12.294 15.2265 10.9401L9.3973 10.9427Z" fill="#333333"></path></g><defs><clipPath id="clip0_2377_2325"><rect width="70.5" height="24" fill="white" transform="translate(0.25 0.139648)"></rect></clipPath></defs></svg> 