<?xml version="1.0" encoding="UTF-8"?> <svg xmlns="http://www.w3.org/2000/svg" width="192" height="25" viewBox="0 0 192 25" fill="none"><mask id="mask0_2377_2351" style="mask-type:luminance" maskUnits="userSpaceOnUse" x="5" y="3" width="22" height="22"><path d="M5.79297 3.59766H26.4814V24.2793H5.79297V3.59766Z" fill="white"></path></mask><g mask="url(#mask0_2377_2351)"><path d="M21.4397 24.2792L15.6448 18.7159H8.16917C6.85645 18.7159 5.79297 17.6524 5.79297 16.3397V10.371L12.3993 3.76465L20.6865 12.0518H26.4236V16.9122C26.4236 17.9085 25.6162 18.7159 24.6199 18.7159H21.5558L21.4397 24.2792Z" fill="#333333"></path></g><path d="M3.83587 10.3333H0.75L11.029 0H21.5253L31.75 10.2787H21.308L12.5991 1.52378L3.83587 10.3333Z" fill="#333333"></path><path d="M57.502 4.23965V19.6396H54.642V13.0396H46.678V19.6396H43.818V4.23965H46.678V10.5976H54.642V4.23965H57.502ZM66.1517 19.7936C64.9637 19.7936 63.8931 19.537 62.9397 19.0236C61.9864 18.5103 61.2384 17.799 60.6957 16.8896C60.1677 15.9656 59.9037 14.9243 59.9037 13.7656C59.9037 12.607 60.1677 11.573 60.6957 10.6636C61.2384 9.75431 61.9864 9.04298 62.9397 8.52965C63.8931 8.01631 64.9637 7.75965 66.1517 7.75965C67.3544 7.75965 68.4324 8.01631 69.3857 8.52965C70.3391 9.04298 71.0797 9.75431 71.6077 10.6636C72.1504 11.573 72.4217 12.607 72.4217 13.7656C72.4217 14.9243 72.1504 15.9656 71.6077 16.8896C71.0797 17.799 70.3391 18.5103 69.3857 19.0236C68.4324 19.537 67.3544 19.7936 66.1517 19.7936ZM66.1517 17.4396C67.1637 17.4396 67.9997 17.1023 68.6597 16.4276C69.3197 15.753 69.6497 14.8656 69.6497 13.7656C69.6497 12.6656 69.3197 11.7783 68.6597 11.1036C67.9997 10.429 67.1637 10.0916 66.1517 10.0916C65.1397 10.0916 64.3037 10.429 63.6437 11.1036C62.9984 11.7783 62.6757 12.6656 62.6757 13.7656C62.6757 14.8656 62.9984 15.753 63.6437 16.4276C64.3037 17.1023 65.1397 17.4396 66.1517 17.4396ZM89.3866 7.75965C90.868 7.75965 92.0413 8.19231 92.9066 9.05765C93.772 9.90831 94.2046 11.1916 94.2046 12.9076V19.6396H91.4546V13.2596C91.4546 12.233 91.2273 11.463 90.7726 10.9496C90.318 10.4216 89.6653 10.1576 88.8146 10.1576C87.8906 10.1576 87.15 10.4656 86.5926 11.0816C86.0353 11.683 85.7566 12.5483 85.7566 13.6776V19.6396H83.0066V13.2596C83.0066 12.233 82.7793 11.463 82.3246 10.9496C81.87 10.4216 81.2173 10.1576 80.3666 10.1576C79.428 10.1576 78.68 10.4583 78.1226 11.0596C77.58 11.661 77.3086 12.5336 77.3086 13.6776V19.6396H74.5586V7.89165H77.1766V9.38765C77.6166 8.85965 78.1666 8.45631 78.8266 8.17765C79.4866 7.89898 80.22 7.75965 81.0266 7.75965C81.9066 7.75965 82.684 7.92831 83.3586 8.26565C84.048 8.58831 84.5906 9.07231 84.9866 9.71765C85.4706 9.10165 86.094 8.62498 86.8566 8.28765C87.6193 7.93565 88.4626 7.75965 89.3866 7.75965ZM108.377 13.8316C108.377 14.0223 108.363 14.2936 108.333 14.6456H99.1154C99.2767 15.511 99.6947 16.2003 100.369 16.7136C101.059 17.2123 101.909 17.4616 102.921 17.4616C104.212 17.4616 105.275 17.0363 106.111 16.1856L107.585 17.8796C107.057 18.5103 106.39 18.987 105.583 19.3096C104.777 19.6323 103.867 19.7936 102.855 19.7936C101.565 19.7936 100.428 19.537 99.4454 19.0236C98.4627 18.5103 97.7001 17.799 97.1574 16.8896C96.6294 15.9656 96.3654 14.9243 96.3654 13.7656C96.3654 12.6216 96.6221 11.595 97.1354 10.6856C97.6634 9.76165 98.3894 9.04298 99.3134 8.52965C100.237 8.01631 101.279 7.75965 102.437 7.75965C103.581 7.75965 104.601 8.01631 105.495 8.52965C106.405 9.02831 107.109 9.73965 107.607 10.6636C108.121 11.573 108.377 12.629 108.377 13.8316ZM102.437 9.95965C101.557 9.95965 100.809 10.2236 100.193 10.7516C99.5921 11.265 99.2254 11.9543 99.0934 12.8196H105.759C105.642 11.969 105.283 11.2796 104.681 10.7516C104.08 10.2236 103.332 9.95965 102.437 9.95965ZM120.778 16.0756H113.078L111.56 19.6396H108.612L115.542 4.23965H118.358L125.31 19.6396H122.318L120.778 16.0756ZM119.832 13.8316L116.928 7.09965L114.046 13.8316H119.832ZM137.91 3.31565V19.6396H135.27V18.1216C134.816 18.679 134.251 19.097 133.576 19.3756C132.916 19.6543 132.183 19.7936 131.376 19.7936C130.247 19.7936 129.228 19.5443 128.318 19.0456C127.424 18.547 126.72 17.843 126.206 16.9336C125.693 16.0096 125.436 14.9536 125.436 13.7656C125.436 12.5776 125.693 11.529 126.206 10.6196C126.72 9.71031 127.424 9.00631 128.318 8.50765C129.228 8.00898 130.247 7.75965 131.376 7.75965C132.154 7.75965 132.865 7.89165 133.51 8.15565C134.156 8.41965 134.706 8.81565 135.16 9.34365V3.31565H137.91ZM131.706 17.4396C132.366 17.4396 132.96 17.293 133.488 16.9996C134.016 16.6916 134.434 16.259 134.742 15.7016C135.05 15.1443 135.204 14.499 135.204 13.7656C135.204 13.0323 135.05 12.387 134.742 11.8296C134.434 11.2723 134.016 10.847 133.488 10.5536C132.96 10.2456 132.366 10.0916 131.706 10.0916C131.046 10.0916 130.452 10.2456 129.924 10.5536C129.396 10.847 128.978 11.2723 128.67 11.8296C128.362 12.387 128.208 13.0323 128.208 13.7656C128.208 14.499 128.362 15.1443 128.67 15.7016C128.978 16.259 129.396 16.6916 129.924 16.9996C130.452 17.293 131.046 17.4396 131.706 17.4396ZM152.015 7.89165L146.977 19.6396H144.139L139.101 7.89165H141.961L145.613 16.6036L149.375 7.89165H152.015ZM153.241 7.89165H155.991V19.6396H153.241V7.89165ZM154.627 5.95565C154.128 5.95565 153.71 5.80165 153.373 5.49365C153.036 5.17098 152.867 4.77498 152.867 4.30565C152.867 3.83631 153.036 3.44765 153.373 3.13965C153.71 2.81698 154.128 2.65565 154.627 2.65565C155.126 2.65565 155.544 2.80965 155.881 3.11765C156.218 3.41098 156.387 3.78498 156.387 4.23965C156.387 4.72365 156.218 5.13431 155.881 5.47165C155.558 5.79431 155.14 5.95565 154.627 5.95565ZM162.738 19.7936C161.784 19.7936 160.853 19.669 159.944 19.4196C159.034 19.1703 158.308 18.855 157.766 18.4736L158.822 16.3836C159.35 16.7356 159.98 17.0216 160.714 17.2416C161.462 17.447 162.195 17.5496 162.914 17.5496C164.556 17.5496 165.378 17.117 165.378 16.2516C165.378 15.841 165.165 15.555 164.74 15.3936C164.329 15.2323 163.662 15.0783 162.738 14.9316C161.77 14.785 160.978 14.6163 160.362 14.4256C159.76 14.235 159.232 13.905 158.778 13.4356C158.338 12.9516 158.118 12.2843 158.118 11.4336C158.118 10.319 158.58 9.43165 159.504 8.77165C160.442 8.09698 161.704 7.75965 163.288 7.75965C164.094 7.75965 164.901 7.85498 165.708 8.04565C166.514 8.22165 167.174 8.46365 167.688 8.77165L166.632 10.8616C165.634 10.275 164.512 9.98165 163.266 9.98165C162.459 9.98165 161.843 10.1063 161.418 10.3556C161.007 10.5903 160.802 10.9056 160.802 11.3016C160.802 11.7416 161.022 12.057 161.462 12.2476C161.916 12.4236 162.613 12.5923 163.552 12.7536C164.49 12.9003 165.26 13.069 165.862 13.2596C166.463 13.4503 166.976 13.773 167.402 14.2276C167.842 14.6823 168.062 15.3276 168.062 16.1636C168.062 17.2636 167.585 18.1436 166.632 18.8036C165.678 19.4636 164.38 19.7936 162.738 19.7936ZM175.217 19.7936C174.029 19.7936 172.958 19.537 172.005 19.0236C171.052 18.5103 170.304 17.799 169.761 16.8896C169.233 15.9656 168.969 14.9243 168.969 13.7656C168.969 12.607 169.233 11.573 169.761 10.6636C170.304 9.75431 171.052 9.04298 172.005 8.52965C172.958 8.01631 174.029 7.75965 175.217 7.75965C176.42 7.75965 177.498 8.01631 178.451 8.52965C179.404 9.04298 180.145 9.75431 180.673 10.6636C181.216 11.573 181.487 12.607 181.487 13.7656C181.487 14.9243 181.216 15.9656 180.673 16.8896C180.145 17.799 179.404 18.5103 178.451 19.0236C177.498 19.537 176.42 19.7936 175.217 19.7936ZM175.217 17.4396C176.229 17.4396 177.065 17.1023 177.725 16.4276C178.385 15.753 178.715 14.8656 178.715 13.7656C178.715 12.6656 178.385 11.7783 177.725 11.1036C177.065 10.429 176.229 10.0916 175.217 10.0916C174.205 10.0916 173.369 10.429 172.709 11.1036C172.064 11.7783 171.741 12.6656 171.741 13.7656C171.741 14.8656 172.064 15.753 172.709 16.4276C173.369 17.1023 174.205 17.4396 175.217 17.4396ZM186.242 9.60765C187.034 8.37565 188.427 7.75965 190.422 7.75965V10.3776C190.187 10.3336 189.975 10.3116 189.784 10.3116C188.713 10.3116 187.877 10.627 187.276 11.2576C186.675 11.8736 186.374 12.7683 186.374 13.9416V19.6396H183.624V7.89165H186.242V9.60765Z" fill="#333333"></path></svg> 