<svg xmlns="http://www.w3.org/2000/svg" viewBox="0 0 923.61 226.22"><defs><style>.cls-1{fill:#d3ae8d;}.cls-2{stroke:#000;stroke-miterlimit:10;}</style></defs><title>Ресурс 4</title><g id="Слой_2" data-name="Слой 2"><g id="Слой_1-2" data-name="Слой 1"><path class="cls-1" d="M67.77,201.37V100.45l6.38-6.37q3.18-3.18,6.35-6.35l6.36-6.36c.23.1.19.23.2.33,0,.31,0,.61,0,.92v98.32a4,4,0,0,0,.07,1.13c.32,0,.62,0,.92,0,2.16-.08,4.31-.18,6.45-.42a68.8,68.8,0,0,0,8.43-1.47,66.23,66.23,0,0,0,15.34-5.78,67.9,67.9,0,0,0,27.87-27,66.34,66.34,0,0,0,7.37-19.89,67.62,67.62,0,0,0,1.1-8.15,66.78,66.78,0,0,0,.08-8.72A65.66,65.66,0,0,0,151.3,93a68.24,68.24,0,0,0-46.93-44.07,64.23,64.23,0,0,0-9.64-1.81,72.77,72.77,0,0,0-8-.45H19.52c-.24.16-.2.34-.21.5s0,.4,0,.59q0,16.17,0,32.33a3.91,3.91,0,0,0,0,.92l.12.11.08,0H65.89l.07,0,.06.06s0,.12,0,.15Q33.23,114.16.45,146.93c-.09.09-.16.22-.31.22l-.09,0A.24.24,0,0,1,0,147Q0,87.34,0,27.65a.58.58,0,0,1,.06-.21.39.39,0,0,1,.33-.11H86.89a87.67,87.67,0,0,1,9.72.53,87.48,87.48,0,0,1,74.06,62.51,84.65,84.65,0,0,1,2.57,12.13,87.27,87.27,0,0,1,.76,15.32,83.65,83.65,0,0,1-1.26,11.59,87.47,87.47,0,0,1-57.19,67.17,85.09,85.09,0,0,1-14.86,3.74,89.18,89.18,0,0,1-14,1.09H68.76l-1,0"/><path class="cls-1" d="M33,134c1-1.15,18.65-18.77,19.17-19.15,0,0,.09.08.09.12.08,1.57,0,85.66,0,86.29-.16.15-.37.11-.56.11h-18c-.2,0-.39,0-.53,0a.54.54,0,0,1-.16-.51c0-.19,0-.39,0-.58V134Z"/><path class="cls-1" d="M19.23,201.32c-.76.11-16.11.17-18.75.08a.47.47,0,0,1-.42-.13,1.66,1.66,0,0,1,0-.71V166.89a.61.61,0,0,1,.2-.45L.62,166q9-9,17.94-17.92a1.51,1.51,0,0,1,.64-.53.84.84,0,0,1,.1.22c.07,1,0,52.94-.07,53.52"/><path d="M325.56,39.61c22.54,0,32.87,13.65,32.87,36v73c0,22.12-10.33,35.76-32.87,35.76h-33.9V39.61Zm-.2,130c11.57,0,17.15-7.23,17.15-20.46V74.76c0-13.24-5.58-20.47-17.36-20.47H307.78V169.64Z"/><polygon points="425 103.7 425 118.17 389.65 118.17 389.65 169.64 433.06 169.64 433.06 184.32 373.52 184.32 373.52 39.61 433.06 39.61 433.06 54.29 389.65 54.29 389.65 103.7 425 103.7"/><path d="M511.82,74.55v13h-15.3V73.72c0-13-5.17-20.88-16.95-20.88-11.58,0-16.95,7.86-16.95,20.88v76.49c0,13,5.37,20.88,16.95,20.88,11.78,0,16.95-7.86,16.95-20.88V131.4h15.3v18c0,21.92-10.34,36.39-32.66,36.39-22.12,0-32.46-14.47-32.46-36.39V74.55c0-21.91,10.34-36.39,32.46-36.39,22.32,0,32.66,14.48,32.66,36.39"/><path d="M525.25,74.55c0-22.12,11-36.39,33.08-36.39,22.33,0,33.28,14.27,33.28,36.39v74.83c0,21.92-11,36.39-33.28,36.39-22.12,0-33.08-14.47-33.08-36.39Zm15.92,75.66c0,13.23,5.58,20.88,17.16,20.88,11.78,0,17.16-7.65,17.16-20.88V73.72c0-13-5.38-20.88-17.16-20.88-11.58,0-17.16,7.86-17.16,20.88Z"/><path d="M639.16,39.61c22.74,0,32.25,11.58,32.25,33.08V84.47c0,15.92-5.58,25.84-18,29.77,13.23,3.93,18.2,14.68,18.2,30.18V167c0,6.4.2,12.4,2.89,17.36H658.18c-1.86-4.13-2.69-7.86-2.69-17.57V144c0-16.33-7.65-21.5-21.09-21.5H623v61.81H606.91V39.61ZM635,107.83c12.81,0,20.46-4.13,20.46-19.84V74.14c0-13-4.75-19.85-16.74-19.85H623v53.54Z"/><polygon points="720.4 184.32 720.4 39.61 736.53 39.61 736.53 169.64 777.87 169.64 777.87 184.32 720.4 184.32"/><polygon points="790.07 184.32 790.07 39.61 806.19 39.61 806.19 169.64 847.54 169.64 847.54 184.32 790.07 184.32"/><path d="M923.61,74.55v13h-15.3V73.72c0-13-5.17-20.88-16.95-20.88-11.58,0-17,7.86-17,20.88v76.49c0,13,5.37,20.88,17,20.88,11.78,0,16.95-7.86,16.95-20.88V131.4h15.3v18c0,21.92-10.34,36.39-32.66,36.39-22.12,0-32.46-14.47-32.46-36.39V74.55c0-21.91,10.34-36.39,32.46-36.39,22.32,0,32.66,14.48,32.66,36.39"/><line class="cls-2" x1="232.96" x2="232.96" y2="226.22"/><line class="cls-2" x1="232.96" x2="232.96" y2="226.22"/></g></g></svg>