<?xml version="1.0" encoding="UTF-8"?>
<svg xmlns="http://www.w3.org/2000/svg" viewBox="0 0 596.01 75.57">
  <defs>
    <style>.a{isolation:isolate;}.b{fill:#231f20;}.c{fill:#00a651;}</style>
  </defs>
  <title>km_logoe</title>
  <g class="a">
    <g class="a">
      <path class="b" d="M37.77,39.52l.91-.86c.57-2.29,1.49-3.62,2.73-4l.32-.33a1.79,1.79,0,0,1-.64-1.12,2.32,2.32,0,0,1,.22-.76l.21-1.07a8,8,0,0,1,.8-1.91,12.15,12.15,0,0,0,1-4.37V24.8A11.49,11.49,0,0,0,42.16,21v-.21a3.53,3.53,0,0,1,.67-2c.45-.66.89-1,1.31-1,2.72,0,4.33.5,4.85,1.48a9,9,0,0,0,1.42,2.12c1,.68,1.45,2.08,1.45,4.19a3.46,3.46,0,0,1-.78,2.66,3.49,3.49,0,0,0-1,1.37A4.2,4.2,0,0,1,49.2,31a2.8,2.8,0,0,0-.56.72l.21,1.08c0,.82-.28,1.34-.85,1.55v.33h.53a1.24,1.24,0,0,0,.89-.33A4.11,4.11,0,0,1,51,33.72,4.69,4.69,0,0,0,52.67,33a3.38,3.38,0,0,1,.89-.56A7.66,7.66,0,0,0,54.5,32l3.22-1.78A32.76,32.76,0,0,1,61,28.62a7.29,7.29,0,0,0,2.45-1.51l1.82-.53.92.1c.14,0,.37-.26.7-.78s.61-.77.86-.77l.64.1a3.54,3.54,0,0,1,1.18-.43l.7-.1,1.4-1.24,1.13-.11a4.35,4.35,0,0,1,3.38-1.18,6.38,6.38,0,0,0,.86-.7,2,2,0,0,1,1.35-.53,3.6,3.6,0,0,0,.91-.43l.86-.54a1.63,1.63,0,0,1,1-.7l1.34-.43a2,2,0,0,1,.75-.32l.7.21a4.78,4.78,0,0,1,2.42-1.29c2,0,3.06.94,3.06,2.8a6.61,6.61,0,0,1-2.09,4.67L84,26.9c-.07,0-.56.13-1.45.29a25.56,25.56,0,0,0-5.27,2.23l-.81-.11a1.52,1.52,0,0,1-1.07.54l-.65-.11a9.3,9.3,0,0,1-1.85.7,7.24,7.24,0,0,0-1.88.84,10.46,10.46,0,0,1-2.64,1,9.17,9.17,0,0,0-2.41.94,3.2,3.2,0,0,1-1.48.57H64a21.51,21.51,0,0,0-3.76,1.5q-1,.38-1.35.48l-1.93.65-2.42,1.39c-.14,0-.84.38-2.1,1h-1a12.43,12.43,0,0,0-1.93,1.18,1.23,1.23,0,0,0-.38.1H49l-.76-.1q-.21,0-.78.51a3.71,3.71,0,0,1-1.48.78c-.6.18-1,.43-1.07.75L44,43.76a2.68,2.68,0,0,1-.94,1.1c-.31.17-.58.77-.83,1.8L39.17,53l-.64.32c.14.61.22.95.22,1a9.82,9.82,0,0,0-.68,1.37,5.76,5.76,0,0,1-.78,1.42,9.43,9.43,0,0,0-1,1.94q4.45,2.79,4.83,2.63l.22.21v.33c0,.35.22.61.67.77a5.15,5.15,0,0,1,1.05.51,3.43,3.43,0,0,0,1.72.27L46.11,65l.64-.11a2.66,2.66,0,0,1,1.27.57,10.21,10.21,0,0,0,1.82,1,6.2,6.2,0,0,1,1.45.81,4.06,4.06,0,0,0,1.48.64c.68.18,1,.32,1,.43q0,1,2.58,1.29,1.62.81,1.83,1.29a1.64,1.64,0,0,0,1,.75,7.63,7.63,0,0,1,1.75.86l1.4.54a1.93,1.93,0,0,1,.37.59c.11.25.58.49,1.4.72s1.31.52,1.45.84a2.28,2.28,0,0,0,.86.91l1-.21a15.53,15.53,0,0,1,3.33,2c.22.08.62.2,1.21.38a2.07,2.07,0,0,1,1.21.78,2.35,2.35,0,0,0,1.29.83c1.86.57,3,2.08,3.33,4.51a16.3,16.3,0,0,1-1.23,2.31,14.18,14.18,0,0,0-1.5.67,9.83,9.83,0,0,1-2,.62l-.43.38c0,.07-.07.1-.22.1A3,3,0,0,1,69.34,86a1.4,1.4,0,0,0-.54-.64c-.28.36-.5.54-.64.54a2.54,2.54,0,0,1-1.35-.46,12.78,12.78,0,0,1-1.69-1.42,15.29,15.29,0,0,0-2.41-1.88c-1-.61-1.68-1.11-2.18-1.51a19.29,19.29,0,0,0-6.12-4,8.83,8.83,0,0,1-.89-.75,13.45,13.45,0,0,0-2.76-1.64,12.09,12.09,0,0,1-4.19-3.84l-.43-.22a19.76,19.76,0,0,1-1.53-1.34A3.51,3.51,0,0,0,42.75,68a10.55,10.55,0,0,1-1.88-1.45c-3.76-2.51-5.92-3.9-6.49-4.19,0,1.68-.25,2.52-.76,2.52l-.59-.1c-.14,0-.36.55-.64,1.66v.75l-.7,2.31c-.43,1.58-1,2.42-1.72,2.53v.8a11,11,0,0,0-1.31,2.66,12.78,12.78,0,0,1-.77,2.1,16.71,16.71,0,0,0-1,2.82,40.51,40.51,0,0,1-2,5.26v.11l.32.91v.43a6.81,6.81,0,0,1-.43,1.67A7.57,7.57,0,0,1,25.38,90a2.22,2.22,0,0,1-.27.88c-.18.38-.35.73-.49,1s-.82.68-2,1.08a5.32,5.32,0,0,1-1-.81,3.35,3.35,0,0,1-2.74-1.77,4.55,4.55,0,0,0-.38-.86,3.25,3.25,0,0,1-.37-1.45,12.74,12.74,0,0,0-.38-1.26,6.33,6.33,0,0,1-.38-1.7,9.69,9.69,0,0,1,1.61-5.58l.11-.7a10.34,10.34,0,0,1,.7-1.67l.75-1.61.11-.75a3,3,0,0,1,.51-1.37,22.85,22.85,0,0,0,1.48-2.93l.43-.69a11.57,11.57,0,0,1,.72-1.51.65.65,0,0,0,.14-.43l.1-.59a1,1,0,0,0,.38-.75,5.35,5.35,0,0,0,.75-.54,28.59,28.59,0,0,1,1.34-3.33l1.67-3.65a.86.86,0,0,0,.16-.38q0-.37-8.08-6.06a2.06,2.06,0,0,1-.91-1.78q0-1.77,3.65-3.49A19.84,19.84,0,0,0,25.26,46a6.57,6.57,0,0,1,2.85-1.28A15.39,15.39,0,0,0,31,43.2q2.55-1.48,2.76-1.53a.81.81,0,0,0,.38-.22A3.18,3.18,0,0,1,35,41a15.91,15.91,0,0,0,1.75-.86A6.28,6.28,0,0,0,37.77,39.52ZM29.33,54.61l.64.32h.22c.32,0,1.08-1.64,2.29-4.94l1.66-4-.64-.11c-.18,0-.41.18-.7.54a30.16,30.16,0,0,0-6.19,2.84l-.48.27A2,2,0,0,0,25,51.5,16.94,16.94,0,0,0,29.33,54.61Z" transform="translate(-17.33 -17.44)"></path>
      <path class="b" d="M77,71.21l.86-.75h.32c.26,0,.63-.27,1.13-.81l.54-.21a4.57,4.57,0,0,1,1.88-1.88l.86-.65a1.82,1.82,0,0,1,.62-.37,5.12,5.12,0,0,0,1.29-1.05A2.44,2.44,0,0,1,86,64.6a2.85,2.85,0,0,1,.86.11,3.38,3.38,0,0,1,1.29-1.26A5.53,5.53,0,0,0,89.66,62l.7-.32a6,6,0,0,0,1.53-1.1,2.36,2.36,0,0,1,1.75-.67,4.88,4.88,0,0,1,3.25,1.58,4.38,4.38,0,0,1,1.69,3l-.91,4.18c-.61,3.08-1.29,4.7-2,4.84l-.22,1.13c-.5.35-.75.64-.75.86L95,76.79c0,.18-.2.45-.59.81-.07,0-.11.11-.11.32v2.21q0,.59-.75,1a1.26,1.26,0,0,0,.32.22A2.17,2.17,0,0,1,95.3,81l.86.11,1.18-1.18a4.78,4.78,0,0,0,1-.51,16.54,16.54,0,0,1,2.28-1.05l7-5.37c1-1,1.7-1.45,2.2-1.45s.81.34.81,1a3.77,3.77,0,0,1-.46,2,10.77,10.77,0,0,0-.83,1.88,3.36,3.36,0,0,1-.89,1.53,4.28,4.28,0,0,0-.83.94A6.74,6.74,0,0,1,106,80.34a16.32,16.32,0,0,0-2.42,2,11.26,11.26,0,0,1-1.64,1.42l-2.31,1.67-.32.54a4.9,4.9,0,0,1-1,.45,6.8,6.8,0,0,0-1.59.89l-1,.54a2.28,2.28,0,0,1-1,.26,1.93,1.93,0,0,0-1.26.62c-.36.38-.65.57-.86.57l-.81-.11-1.07.32a3.84,3.84,0,0,1-2.23-1.1A3.08,3.08,0,0,1,87.12,86v-.32l.11-.75a5.18,5.18,0,0,0-.32-1.1,5.75,5.75,0,0,1-.32-1l.1-.75-.1-.32A4.75,4.75,0,0,1,86.8,80a3.2,3.2,0,0,0,.32-1c.07-.45.15-.82.22-1.1l.27-1.35a1.65,1.65,0,0,1,.53-.86c.08-.28.22-.77.43-1.45l.22-1,.54-.76a1.92,1.92,0,0,0,.51-1.15,3.82,3.82,0,0,1,.56-1.53,3.54,3.54,0,0,0,.48-1,.56.56,0,0,0-.64-.64A4.56,4.56,0,0,0,88.9,69l-1-.33c-.07,0-.27.18-.59.54,0,.15-.16.25-.49.32a1.62,1.62,0,0,0-.91.81l-.43.11-.7-.33H84.6c-.36,0-.58.4-.65,1.19a2.67,2.67,0,0,1-1.56,1.12l-1.18.33a1.46,1.46,0,0,0-.86,1,3,3,0,0,1-1.07,1.37,2.69,2.69,0,0,1-1.08.62c-1,0-1.5-.55-1.5-1.66l.43-2.53Zm23.2-26.86-.32-2.09v-.32c0-1.69.57-2.62,1.72-2.8a18.75,18.75,0,0,0,2.26-.69,3.77,3.77,0,0,1,2,1.69,4.69,4.69,0,0,1,1,2.6,2.07,2.07,0,0,1-.16.49,4.76,4.76,0,0,0-.22,1.42,2.4,2.4,0,0,1-1,1.82,3.4,3.4,0,0,1-2.13.78,3.26,3.26,0,0,1-1.9-1A3.51,3.51,0,0,1,100.22,44.35Z" transform="translate(-17.33 -17.44)"></path>
      <path class="b" d="M126,41.29l.75-.21.54-.54h.11l.48.21H128a5,5,0,0,0,2.29-.51,10.5,10.5,0,0,1,1.68-.72,4.46,4.46,0,0,0,.84-.32.56.56,0,0,1,.27-.11l.87.11c.28,0,.67-.51,1.15-1.53a5.87,5.87,0,0,1,1.64-2.23,7.31,7.31,0,0,0,1.82-2.63A4.14,4.14,0,0,0,139,32c.18-.37.32-.56.43-.56.53,0,1-.34,1.28-1,1.08-1.25,2-1.88,2.63-1.88.9,0,1.52.86,1.88,2.58l.54,2s-.09.29-.27.78a3.66,3.66,0,0,0-.24,1.45,3.36,3.36,0,0,1-.05,1,1.64,1.64,0,0,0-.08.57c0,.28.3.43.91.43a3.54,3.54,0,0,0,1.18-.43l.32-.11a1.81,1.81,0,0,0,.92.32c.07,0,.58-.18,1.53-.53a12.39,12.39,0,0,1,1.8-.6,5.44,5.44,0,0,0,1.28-.43h.65l.43.17a2.38,2.38,0,0,0,.88-.46,5.58,5.58,0,0,1,2.56-.56l.75-.33h.21c1.18,0,1.78.52,1.78,1.56a2.72,2.72,0,0,1-.51,1.13,7.68,7.68,0,0,0-.84,1.83L156.52,42a3.34,3.34,0,0,1-2.47,1.61c-.14,0-.59-.48-1.34-1.45,0-.07-.07-.11-.22-.11a3.37,3.37,0,0,0-1.12.22,3.09,3.09,0,0,1-1,.21q-.17,0-2.85.81l-1.29.21a6.29,6.29,0,0,0-1,.22l-2.74.54a4.8,4.8,0,0,0-2.2,2.63q0,.1-.54.48l-2.42,4.41a2.12,2.12,0,0,0-1.56,1.39l-.22.32a1.89,1.89,0,0,0-1.07.68,5.68,5.68,0,0,1-.92.88l-1,1.45c-.4.5-.79,1-1.19,1.64a6.51,6.51,0,0,0-.86,1.88,3.66,3.66,0,0,1-.43,1.16.8.8,0,0,0-.16.59l-.16.43a2,2,0,0,0-.65,1.45l.22.86c-.51,1.71-.76,2.63-.76,2.73a4.7,4.7,0,0,0,.11.6v.32a7.15,7.15,0,0,1-.86,2.95L128,72l-.33,2.42a8.72,8.72,0,0,0,.33,1.77c-.15.14-.22.25-.22.32a5.23,5.23,0,0,0,1.59,3.31q1.59,1.8,1.59,5.61a4.54,4.54,0,0,1-.16.94,7.65,7.65,0,0,0-.22,1.34,2.87,2.87,0,0,1-2.15,2.12c-1.9,0-3.32-1.37-4.25-4.13a22.72,22.72,0,0,1-1.4-5.32l.11-2.09-.33-1.08.33-4.73-.22-1.12,1.24-4.62V65a3.78,3.78,0,0,1,.75-.86c0-.07-.07-.1-.21-.1s-.51.21-.86.64A7.8,7.8,0,0,1,122.22,66l-.43.75a1.19,1.19,0,0,0-.43-.22A12.71,12.71,0,0,0,119.58,69a2.35,2.35,0,0,0-1.77,1.29A2,2,0,0,1,116,71.42l-.21.11c-.15,1-.65,1.56-1.51,1.56l-.21.11c-.54,1.21-1.1,1.8-1.67,1.77a3.52,3.52,0,0,1-2.64,2.2,2.15,2.15,0,0,1-.94,1,3.66,3.66,0,0,0-.89.59.74.74,0,0,1-.48.27c-.47,0-.7-.5-.7-1.51a1.67,1.67,0,0,1,.35-.94,1.69,1.69,0,0,0,.35-.72c0-.07-.18-.29-.54-.65,0-1.11.29-1.8.86-2.09a2.92,2.92,0,0,0,1.29-1.24,1.65,1.65,0,0,1,1.07-.91c.54-.18.81-.41.81-.7s.47-.75,1.4-1.5a13,13,0,0,0,2-2c.43-.56.79-.83,1.08-.83l.21-.22c.07-.89.42-1.34,1-1.34l.53-.32.11-.43.32-.22h.43l.27-.21a2.62,2.62,0,0,1,1.27-2.1,28.82,28.82,0,0,0,4.22-4.22,23.5,23.5,0,0,0,3.44-4.43,18.43,18.43,0,0,1,1.37-2.6,7,7,0,0,0,1.1-3.09,1.71,1.71,0,0,0-.32-.43l-2.31,1.13c0-.11-.36-.27-1.07-.48a4.26,4.26,0,0,0-1.19,1c-.25.32-.44.49-.59.49l-.75-.11-2.36.27a10.8,10.8,0,0,0-4.78,1.29l-2.2.64h-.49a2.91,2.91,0,0,0-1.29.54L111.21,51a6.32,6.32,0,0,1-2.53.91,5.06,5.06,0,0,1-.64-.1l-5.48,1.5a13.55,13.55,0,0,0-2.9,2.2l-.43.11c-.36,0-.78-.4-1.26-1.21a4.39,4.39,0,0,1-.73-2.17q0-5.33,9.13-6.18l2.21-.86h.1l.59.21h.22a2.4,2.4,0,0,0,1-.4,14.32,14.32,0,0,1,3.12-1l2.2-.59.7.1a2.25,2.25,0,0,0,1.2-.43,5.25,5.25,0,0,1,2-.61,8.92,8.92,0,0,0,1.9-.41l.86-.21a2.65,2.65,0,0,0,.89-.38,3.56,3.56,0,0,1,1.74-.37A3.84,3.84,0,0,1,126,41.29Z" transform="translate(-17.33 -17.44)"></path>
      <path class="b" d="M145.4,74.27v-.54a6.66,6.66,0,0,1,1.08-2.31,5.17,5.17,0,0,1,2.46-2.31c.08,0,.11,0,.11-.1l-.11-.86c.15-.15.5-.61,1.08-1.4s1.12-1.13,1.66-1a5.08,5.08,0,0,1,1.5-1.42,6.81,6.81,0,0,0,1.67-1.48l2-1.24a6.78,6.78,0,0,1,3.06-1.39h.81a2.19,2.19,0,0,1,3.06-.75.29.29,0,0,0,.21.1,3.78,3.78,0,0,0,.65-.43,2.41,2.41,0,0,1,1.44-.43,19.09,19.09,0,0,1,2.42.86,1.81,1.81,0,0,1,1.23-.64,1.84,1.84,0,0,1,.75.32,8.25,8.25,0,0,0,1.11.56c.37.17.74.83,1.1,2a16.73,16.73,0,0,1,.53,2c0,.58-.47,1.25-1.42,2a4.32,4.32,0,0,1-2.65,1.15c-.29,0-.64-.25-1.07-.75a13,13,0,0,1-2.74-.81,7.84,7.84,0,0,0-2.3.81h-.11l-.48-.43-.43-.11h-.11a6,6,0,0,0-.42.76,5.7,5.7,0,0,1-1.48.77,2.32,2.32,0,0,0-1,.59,4.38,4.38,0,0,1-1.26.84,2.86,2.86,0,0,0-1.31,1.18,7.27,7.27,0,0,1-1.56.7h-.32a20.39,20.39,0,0,1-2,2.84l-1.39,2.31c-.33.29-.72.62-1.19,1s-.69.7-.69,1a3.16,3.16,0,0,0,.1.54v.53q0,.33-.51.78c-.34.31-.51.53-.51.68l.11,1.18-.43,1.88c0,1.11.81,1.66,2.42,1.66h.8l2.31-.37c.75-.11,1.38-.22,1.88-.33s.78-.16.86-.16a3.54,3.54,0,0,0,.85-.59h.54l.48-.11c.15-.75,1.17-1.37,3.06-1.88A3.8,3.8,0,0,1,163.44,80a7.79,7.79,0,0,0,3.08-2h.8a3.57,3.57,0,0,0,1-.62,8.24,8.24,0,0,1,1.71-1,3.06,3.06,0,0,0,1.1-.65,2,2,0,0,1,.81-.48,4.09,4.09,0,0,1,2.31-1.88l.21-.21c.57-.5.93-.76,1.07-.76l.65.11c.36,0,.58-.22.67-.67s.66-1.06,1.72-1.83a5.51,5.51,0,0,1,2-1.15c.68,0,1,.36,1,1.07,0,.54-.31.85-.92.92a9.68,9.68,0,0,1,.59,1.55,2.22,2.22,0,0,1-1.77,2.31.36.36,0,0,0-.21.33l-.11,1s0,0,0,.08a2.5,2.5,0,0,1-.21.25l-.81.1-.21.32A12.62,12.62,0,0,0,175.21,79l-1.08,1.13H174c-.36-.36-.64-.54-.86-.54s-.32.25-.54.75a8.73,8.73,0,0,1-2.63,2.09,4.49,4.49,0,0,0-1.12.86l-1.08.7h-.8a1.53,1.53,0,0,0-.3.46,3.08,3.08,0,0,1-.94.88,5.88,5.88,0,0,0-1.15,1,2,2,0,0,1-1,.67l-1-.21a1.88,1.88,0,0,1-1.78.86,7.3,7.3,0,0,0-.93.83c-.42.41-.69.62-.84.62a3.6,3.6,0,0,1-1.13-.65h-.1q-.54,0-.54.81c0,.54-.33.82-1,.86a4.18,4.18,0,0,0-1.86.54h-.1a2.77,2.77,0,0,1-1.78-.46,5,5,0,0,0-1-.67q-1.67.54-1.77.54a1.82,1.82,0,0,1-1.24-.54l-2.31-1.18a5.25,5.25,0,0,1-.75-1.45l-.32-.43c-1.15-.22-1.92-1.4-2.31-3.55l-.43-1.29a.72.72,0,0,1-.11-.48,5,5,0,0,1,.43-1.64,22.21,22.21,0,0,0,.86-3A3,3,0,0,1,145.4,74.27Z" transform="translate(-17.33 -17.44)"></path>
      <path class="b" d="M179.4,70.24l.43-.59a2.44,2.44,0,0,0,1.78-1.07,22.74,22.74,0,0,1,2.7-2.8c1.69-1.61,2.63-2.47,2.81-2.57a21.62,21.62,0,0,0,2.08-4.68c.43-.21.65-.46.65-.75l.42-.86.49-.11.21-.21v-.48c0-.65.7-2.15,2.09-4.52q2.08-4.35,2.25-4.8a9,9,0,0,1,.65-1.34A37.1,37.1,0,0,0,197.43,42a22.09,22.09,0,0,1,3.09-5.26,3,3,0,0,0,.65-1.21,7.48,7.48,0,0,1,1.34-2.17l.64-1.13,1.13-1.88a15.36,15.36,0,0,1,1.48-2.12,6.37,6.37,0,0,0,1-1.64,3,3,0,0,1,.83-1.24,4.09,4.09,0,0,0,1-1.37,1.68,1.68,0,0,1,1.59-1,3.19,3.19,0,0,1,3,1.72,6.46,6.46,0,0,1,.94,3c0,.1-.21.87-.64,2.31l-.81,4.83c-.71.36-1.07.77-1.07,1.24a10.24,10.24,0,0,1-2.2,5.9,3,3,0,0,0-.35,1.4,3,3,0,0,1-.94,1.93,6.58,6.58,0,0,0-1.45,2.53l-5,7.14-.43.43a3.33,3.33,0,0,0-.75.91l-.86-.26c-1,0-1.45.3-1.45.91a2.39,2.39,0,0,0,.22.86V58s-1.33,1.91-4,5.64a12.14,12.14,0,0,0-.75,2.09L193,67.34a10.74,10.74,0,0,0-1.59,3,6.79,6.79,0,0,1-1.21,2.39c-.71,1.61-1.07,2.45-1.07,2.52a.28.28,0,0,0,.32.32c.22,0,.73-.53,1.53-1.61a10.31,10.31,0,0,1,2-2.15,4.32,4.32,0,0,0,1.32-1.5l.54-.38a8,8,0,0,0,.91-.64l.54.11a1.46,1.46,0,0,0,.54-.76,1.29,1.29,0,0,1,.32-.64,2,2,0,0,0,1.75-1c.23-.57.51-.86.83-.86s.66-.33,1.13-1a5.1,5.1,0,0,1,2-1.62,10.64,10.64,0,0,0,1.89-1.1,10.15,10.15,0,0,1,2.5-1.15,9.6,9.6,0,0,1,2.53-.67H210l.43.11.81-.11a7.65,7.65,0,0,1,3.76,1,3,3,0,0,1,1.61,3.24l-.43,3.33-.59,2.64a24,24,0,0,1-.86,2.84,16,16,0,0,0-.75,2.53l-.21,1,.21,1.39-.11,1.13a.48.48,0,0,0,.54.54c.14,0,.53-.32,1.18-1,.39.08.76-.14,1.12-.64a9.68,9.68,0,0,1,1.45-1.56c0-.14.23-.28.69-.4a5.84,5.84,0,0,0,1.93-1.26,9.6,9.6,0,0,1,2.09-2.07A18.77,18.77,0,0,1,226.45,71l.33-.43a2.54,2.54,0,0,1,1.66-.91c.49,0,.74.27.74.81a2.8,2.8,0,0,1-.26,1.12,5.17,5.17,0,0,0-.38,1.54,8.48,8.48,0,0,1-1.07,2.71l-.22.54c-.25.6-.55,1-.91,1.07a2.61,2.61,0,0,0-1.15.89,5.93,5.93,0,0,1-2.55,1.37c-.57,1.07-1,1.61-1.34,1.61l-1-.43a2.49,2.49,0,0,0-1.12,1.88,11.92,11.92,0,0,0-1.66,1.55l-1.08-.1c-.28,0-.43.39-.43,1.18,0,.07-.36.31-1.1.72a13.89,13.89,0,0,0-1.69,1.1,4.28,4.28,0,0,1-2.52.49,1.27,1.27,0,0,1-.64-.38,3.69,3.69,0,0,0-1.26-.64,1.79,1.79,0,0,1-1.15-1.26,6.43,6.43,0,0,0-.7-1.56,1.83,1.83,0,0,1-.38-.89l.11-1.07-.27-1.13.49-.75a3.25,3.25,0,0,1-.33-1l.54-3.28a34.69,34.69,0,0,1,1-4.62c.07-.07.1-.28.1-.64l-.1-1.35.1-.75c0-.53-.17-.82-.53-.86s-.58-.12-.65-.27a4.22,4.22,0,0,0-.8-.32c-.29,0-.54.23-.76.67a4.24,4.24,0,0,1-.86,1.21l-1.34-.21v.1c0,.29-.49.85-1.45,1.67a4.43,4.43,0,0,0-2.32,1.4,3.17,3.17,0,0,0-1.47.83,7.07,7.07,0,0,1-1.37.94l-.43.86-.86.27A2.25,2.25,0,0,1,193.59,76l-.54,1a1.78,1.78,0,0,0-1.56,1.16c-.28.7-.5,1-.64,1a.9.9,0,0,1-.35-.14A.92.92,0,0,0,190,79q-1.18,0-1.29,1.77a15.93,15.93,0,0,1-2.2,2.52,30.11,30.11,0,0,1-2.37,2.37c-.11,0-.31.4-.62,1.1a3.32,3.32,0,0,1-1.26,1.56,13.06,13.06,0,0,0-1.21.83,1.24,1.24,0,0,1-.62.32c-.75,0-1.36-.54-1.83-1.61s-.7-1.63-.7-1.67l.33-1.12-.11-1s.22-.76.67-2.18a12.39,12.39,0,0,1,1.53-3.33,9.89,9.89,0,0,0,1.35-3.94,10.13,10.13,0,0,1-2.91,1.61c-.71,0-1.07-.47-1.07-1.4A7.12,7.12,0,0,1,179.4,70.24Z" transform="translate(-17.33 -17.44)"></path>
      <path class="b" d="M233.56,67.93l1.13-.91a1.35,1.35,0,0,0,1.39-1.34,2.88,2.88,0,0,1,1.77-2.15l.65-.91a14.24,14.24,0,0,1,4.4-2.1,4.16,4.16,0,0,0,1.23-1,.3.3,0,0,1,.22-.1l.86.21a5.8,5.8,0,0,0,1.79-.37,6.6,6.6,0,0,1,2.12-.38l2.26-.11a2.86,2.86,0,0,1,.88.32,3.72,3.72,0,0,0,1.64.33,2.9,2.9,0,0,1,2.17,1.07,3.06,3.06,0,0,1,1,2,4.88,4.88,0,0,1-1.72,3.38,6.62,6.62,0,0,1-2.73,1.94,6.49,6.49,0,0,1-1.4,1.15,3.92,3.92,0,0,0-1,.75,1.38,1.38,0,0,1-.83.51.38.38,0,0,1-.32-.13.39.39,0,0,0-.32-.14c-.57,0-1.2.7-1.88,2.1l-1-.11a2.88,2.88,0,0,0-1.18,1.29,1.09,1.09,0,0,1-1.13.7c-1.32,1.32-2.21,2-2.68,2a5.34,5.34,0,0,1-.75-.22,1.78,1.78,0,0,0-.43,1.13c0,.43-.28.68-.86.75l-.69.65-.54-.11-1.07,1.13a3.17,3.17,0,0,0-1.66.53c-.08.43-.18,1-.33,1.64s-.21,1-.21,1.1q0,1.56,2.85,1.56l2.57-.38a3.67,3.67,0,0,0,1.91-.53,3.61,3.61,0,0,1,1.91-.54,3.28,3.28,0,0,0,1-.22l.53.22a3.56,3.56,0,0,1,1.4-1.45,3.4,3.4,0,0,1,1.61-.65l.54-.32a1.41,1.41,0,0,1,.64-.86l.43-.37a1.2,1.2,0,0,1,.81-.43h.75l.22-.11a2.59,2.59,0,0,1,1.8-1.64,2,2,0,0,0,1.45-.78,1.31,1.31,0,0,1,1-.64,2,2,0,0,0,1.27-.73,6.72,6.72,0,0,1,1.26-1.15q.75-.54,1-.81a.8.8,0,0,1,.51-.27c.21,0,.32.17.32.49s.07.48.21.48.22-.07.22-.21a1.78,1.78,0,0,0-.11-.54v-.38a1.07,1.07,0,0,1,.86-1.07l2.42-1.56c.07-.75.27-1.19.62-1.31a2.48,2.48,0,0,0,.77-.43.85.85,0,0,1,.6-.25q.69,0,.69.81l-.26,1.4.26,1.45a1.57,1.57,0,0,1-.51.88,3.88,3.88,0,0,0-.78,1.72c-.18.77-.41,1.19-.7,1.26h-.32a4.41,4.41,0,0,1-1.53,1.21,1.71,1.71,0,0,0-.89.67L260,79.16c-.36.36-.67.68-.92,1s-.45.42-.59.42l-.43-.42c0-.08-.07-.11-.21-.11-.36,0-.59.21-.68.64a2.37,2.37,0,0,1-.56,1.13,5.69,5.69,0,0,0-2.1,1.4l-.32.1h-1c-.46,0-.79.35-1,1a1.6,1.6,0,0,1-1.53,1.21,3.39,3.39,0,0,0-1.8.64,1.07,1.07,0,0,1-.48.22,7.66,7.66,0,0,0-1.51.86l-4.51,1.61a2.21,2.21,0,0,1-.7.27l-1.51.21a.85.85,0,0,1-.64-.43c-.22-.28-.36-.43-.43-.43l-1,.33a7.26,7.26,0,0,1-2,.32,2.39,2.39,0,0,1-1.18-.38,8.6,8.6,0,0,0-1-.53c-1,0-1.78-.81-2.21-2.42l-.64.11c-.15,0-.63-1.27-1.46-3.82a1.84,1.84,0,0,0-1-.62.94.94,0,0,1-.69-1c0-1.61.35-2.7,1-3.25s1.09-1,1.16-1.26l.75-2.8a2.77,2.77,0,0,0,.54-1.07l1.23-2.26C232.73,69.56,233.06,68.94,233.56,67.93Zm11.36-3.22-.65.32A14.49,14.49,0,0,0,243,66a12.27,12.27,0,0,1-2,1.34,5.88,5.88,0,0,0-2,2.66,12.5,12.5,0,0,0-1.05,2.47.29.29,0,0,0,.32.33L240,72a8.87,8.87,0,0,0,1.91-1.23,24.38,24.38,0,0,1,2.55-1.83l.43-.43a3.57,3.57,0,0,1,1-.78,5.54,5.54,0,0,0,1.32-1.1l.53-.21a4,4,0,0,1,1.86-1.78c.62-.21.94-.43.94-.64,0-.43-.35-.65-1-.65a2.82,2.82,0,0,0-1.29.54H247a3.92,3.92,0,0,0-1.18.65Z" transform="translate(-17.33 -17.44)"></path>
      <path class="b" d="M309.08,79.27h.22l.54.21a.27.27,0,0,0,.21-.11,1.89,1.89,0,0,1,.86-1.55,2.49,2.49,0,0,1,1.21-1.56c.63-.36,1.63-1,3-1.77l1.35-1.19.64-.32.44-.54a1.59,1.59,0,0,1,1.13-.69c.53,0,.8.19.8.59L319,73.41l.21,1.77a2.49,2.49,0,0,1-.67,1.72c-.45.5-1.14,1.24-2.07,2.2L313.72,82l-1.45.76a4.49,4.49,0,0,0-1,.75l-2.1,1.77a1.35,1.35,0,0,1-.48,1.13h-.86l-.43.21a4.39,4.39,0,0,1-2.21,2l-.75.54a1.15,1.15,0,0,1-.7.32l-1.51-.21-1,.21a2.48,2.48,0,0,1-1.16-.43,6.89,6.89,0,0,0-1.47-.67c-.51-.16-1.14-.82-1.91-2a9.35,9.35,0,0,1-1.27-2.28,2,2,0,0,0-.24-.72,2.68,2.68,0,0,1-.24-.62,6.77,6.77,0,0,1,.48-1.08v-.1a2.7,2.7,0,0,0-.29-.76,3.15,3.15,0,0,1-.3-1.45,3.38,3.38,0,0,0-.32-1.23c.29-.29.43-.5.43-.65a1.71,1.71,0,0,0-.16-.61,1.8,1.8,0,0,1-.16-.62l.32-2.63-.22-1.35.11-1.29c0-.75-.32-1.12-1-1.12a1.75,1.75,0,0,0-1.07.59l-.38.1a13,13,0,0,0-2,1.16,2,2,0,0,1-1.23.46,3.17,3.17,0,0,1-1.23.59l-.43.32a6,6,0,0,1-.86.64,11.87,11.87,0,0,1-2,1.8c-1.34,1.1-2.55,2.12-3.62,3.09a6.27,6.27,0,0,1-2.33,1.59c-.48.08-.72.54-.72,1.37,0,.14-.32.42-1,.85a7,7,0,0,0-1.13,1.19,4.87,4.87,0,0,0-1-.65q-.71,0-1,1.77c-.22.47-.79.76-1.72.86a2.19,2.19,0,0,0-.38.81l-.22.21h-.54a3,3,0,0,0-.75.62,3.37,3.37,0,0,1-1.13.78c-.47,1-.86,1.45-1.19,1.45a1.45,1.45,0,0,1-.61-.21,4.76,4.76,0,0,0-1-.38q-.58-.16-1.32-1.32a3.91,3.91,0,0,1-.72-2q0-6,2.31-6.5l.11-.21v-.43a1,1,0,0,1,.61-1,3.68,3.68,0,0,0,1.27-1.18,3.9,3.9,0,0,1,.86-1h.69c.15,0,.22-.37.22-1.13a.83.83,0,0,1,.27-.59,1.27,1.27,0,0,0,.32-.78,4.58,4.58,0,0,1,.78-1.66,5.22,5.22,0,0,0,.72-1.37l-.1-.22a5.18,5.18,0,0,1-1.94,1.35c-.39.07-.93.59-1.61,1.55l-.86-.16a19.92,19.92,0,0,1-2.8,1.88A3.12,3.12,0,0,0,264,75.4a.44.44,0,0,1-.38.43,5.93,5.93,0,0,0-1.4.86h-.32c-.9,0-1.35-.65-1.35-1.94l1.13-3.06A4.51,4.51,0,0,1,264,69.25a26.56,26.56,0,0,0,3-1.91,4.42,4.42,0,0,1,2.47-1l.38-.54a4.13,4.13,0,0,0,2.46-2.2c.43-1,1-1.51,1.78-1.51a5.19,5.19,0,0,1,4.5,2.18,6.7,6.7,0,0,1,1.56,3.46l.11,1.45a9.51,9.51,0,0,1-.33,2.1,3.14,3.14,0,0,0-.64,1.45c0,.28.18.43.54.43a1.55,1.55,0,0,0,.85-.46,8.31,8.31,0,0,1,1.21-.83,1.74,1.74,0,0,0,.78-.65,3.05,3.05,0,0,1,1.88-1.77,5.12,5.12,0,0,0,1.66-.81l.54-.43.43-.8a6,6,0,0,0,1.93-1.18,2.27,2.27,0,0,1,1.29-.7,4.52,4.52,0,0,0,1.82-1l.81-.21.75-.43a2.06,2.06,0,0,1,.64-.27c.36-.11.89-.3,1.59-.56a5,5,0,0,1,1.42-.41,5.07,5.07,0,0,1,4.32,2.2,6.86,6.86,0,0,1,1.58,3.55l-.11,1,.22,1.45v.21l-.43,3,.11,1c0,1.68-.36,2.84-1.08,3.49-.18.07-.27.25-.27.53v.49l1.08,2.25c.32.79.57,1.19.75,1.19l1.72-.49a2.05,2.05,0,0,0,1.24-1.13,7.79,7.79,0,0,0,1.51-1.28C308.27,79.55,308.62,79.27,309.08,79.27Z" transform="translate(-17.33 -17.44)"></path>
    </g>
  </g>
  <g class="a">
    <path class="b" d="M348.71,87.35a7.14,7.14,0,0,1-4-1.29,9.32,9.32,0,0,1-3.11-3.58,11,11,0,0,1-1.17-5.1,9.77,9.77,0,0,1,2.86-6.82,32.54,32.54,0,0,1,8.42-6.07,20.2,20.2,0,0,1-.29-2.6,12.75,12.75,0,0,1,1.24-5.57,14.3,14.3,0,0,1,3.24-4.44,15.46,15.46,0,0,1,4.22-2.81,10.59,10.59,0,0,1,4.25-1,5.91,5.91,0,0,1,3.78,1.13,3.54,3.54,0,0,1,1.43,2.91,7.65,7.65,0,0,1-1.21,4.25,13.66,13.66,0,0,1-3.11,3.35,54.92,54.92,0,0,1-4.64,3.2c-1.84,1.14-2.95,1.86-3.34,2.15a38.46,38.46,0,0,0,2.84,7.56,32.61,32.61,0,0,0,4.13-3.21,34.64,34.64,0,0,0,2.52-2.62q1-1.2,1.38-1.2c.17,0,.32.21.44.64a5.68,5.68,0,0,1,.17,1.41,8.86,8.86,0,0,1-.64,3.37,14.31,14.31,0,0,1-1.83,3.16,33.31,33.31,0,0,1-2.95,3.37l1.94,2.11a8.83,8.83,0,0,0,.64-.67,3.69,3.69,0,0,1,.59-.6.67.67,0,0,1,.44-.17.52.52,0,0,1,.45.24.9.9,0,0,1,.16.53c0,.8-.57,2.14-1.7,4s-2.07,2.83-2.81,2.83a1.74,1.74,0,0,1-1.14-.48,10.2,10.2,0,0,1-1.35-1.55c-.53-.72-1-1.32-1.29-1.81a43.61,43.61,0,0,1-6,4A10.14,10.14,0,0,1,348.71,87.35Zm4-19a25.74,25.74,0,0,0-3.85,3.22,18.82,18.82,0,0,0-2.67,3.36,5.64,5.64,0,0,0-1,2.71c0,1.44.65,2.17,2,2.17a11.54,11.54,0,0,0,3.9-1A21,21,0,0,0,356,76.07C355.09,74.07,354,71.5,352.67,68.33Zm3.95-8.76v1.2a24.79,24.79,0,0,0,6.55-5q2.32-2.62,2.33-4.19a1.16,1.16,0,0,0-1.32-1.31,5.54,5.54,0,0,0-3.05,1.42A13,13,0,0,0,358,55.25,8.17,8.17,0,0,0,356.62,59.57Z" transform="translate(-17.33 -17.44)"></path>
  </g>
  <g class="a">
    <path class="c" d="M413,42.43l.32-.1h1.45c.43,0,1.06-.5,1.88-1.51a29.24,29.24,0,0,1,2.87-1l.21-.21c.51-.43.87-.72,1.08-.86h1a3.82,3.82,0,0,0,.86-.51,12.44,12.44,0,0,1,3.21-1.16A15.67,15.67,0,0,0,429.13,36a20,20,0,0,1,2.37-.32l1.5-.27,1.18.1c1.9,0,3.26,1.26,4.09,3.76a1.54,1.54,0,0,0,.26.68,1.52,1.52,0,0,1,.27.67,7.26,7.26,0,0,1-2.2,4.72l-.75,2a3.39,3.39,0,0,1-.57.81,7.84,7.84,0,0,0-1,1.64A12.33,12.33,0,0,1,432,52.58c-.21.43-.52,1.11-.91,2a7.21,7.21,0,0,1-1,1.8A34.51,34.51,0,0,0,428,59.62a13,13,0,0,0-1.69,3.28,3.09,3.09,0,0,0-1.1,2,7.92,7.92,0,0,1-1.1,2.64l-.11.37c1.14-.39,1.72-1,1.72-1.88,0-.1.3-.37.91-.8l.43-.75a2.29,2.29,0,0,1,1.12-.86c.07-.29.45-.71,1.13-1.27s1.13-.94,1.37-1.15a3.94,3.94,0,0,1,1.15-.67c.54-.24,1.15-1.12,1.83-2.66.07-.29.34-.52.83-.7a2.64,2.64,0,0,0,1.2-.89,4.25,4.25,0,0,1,.81-.83l.43-.64a4.87,4.87,0,0,1,.8-.65l2.63-3.22c1.4-.89,2.16-1.59,2.31-2.09l.43-.11h.32c.57-.47,1-.79,1.13-1a2.06,2.06,0,0,1,1.2-2.12,4,4,0,0,0,1.75-1.24,1,1,0,0,1,1.77-.4h.11c.1,0,.21-.18.32-.54v-.53a2.21,2.21,0,0,1,.53-1.51,2.66,2.66,0,0,1,1.45-.78,3.07,3.07,0,0,0,1.77-1.37,2.63,2.63,0,0,1,2-1.23,1.57,1.57,0,0,0,1.48-.86,4.9,4.9,0,0,1,2.3-1.75,14.5,14.5,0,0,1,2.42-1,2.85,2.85,0,0,0,.88-.29,1.81,1.81,0,0,1,.83-.22,5.56,5.56,0,0,1,1.56.33l1,.21a5.94,5.94,0,0,1,2.31,2l.53.54v.21l.11.91v.43c.47.22.7.43.7.65l-.38.7a1.76,1.76,0,0,0-.21.88,8.72,8.72,0,0,1-.06,1c0,.34-.08.66-.13,1a5.69,5.69,0,0,1-.21.86,6.51,6.51,0,0,1-.3.75,4.44,4.44,0,0,1-.38.67l-.43,1.72a7.25,7.25,0,0,1-1.15,2.44,9.29,9.29,0,0,0-1.1,2,6.92,6.92,0,0,1-.75,1.53l.11.32v.76c1.11-.15,1.67-.58,1.67-1.29a1.79,1.79,0,0,1,1.34-1.67l1.19-1a6.83,6.83,0,0,1,3.45-3.23,2.49,2.49,0,0,1,1-1.77l2-1.93,1.46-.81a4.4,4.4,0,0,1,2.21-2.42l1.19-.75c.72-.36,1.12-.7,1.21-1a2.12,2.12,0,0,1,.84-1c.46-.36,1.15-1,2.05-1.77l.43-.22.53-.54a6.66,6.66,0,0,1,1.35-.53l.43-.22a8.44,8.44,0,0,1,2.41-1.37,12.31,12.31,0,0,0,2.42-1.15l1.88-.27a3.71,3.71,0,0,1,.86-.22q5.1,0,5.1,5.75l-.11.86.11,3.12c-.89,1.46-1.34,2.23-1.34,2.3l.11,1a4.34,4.34,0,0,1-.7,1.26c-.47.7-.75,1.12-.83,1.27a13,13,0,0,1-1,1.12l-.54,1.62a3.13,3.13,0,0,1-.91,1v.64c0,.54-.7,1.34-2.09,2.42a3.92,3.92,0,0,1-.94,2.06,5.14,5.14,0,0,0-1,1.4,4.22,4.22,0,0,1-1.11,1.37,5.94,5.94,0,0,1-.91,2.36,9.45,9.45,0,0,1-1.42,2.13,5.09,5.09,0,0,0-1.05,1.58l-.48.22c-.22,1.36-.47,2.13-.75,2.3l-.86-.1v.21a.85.85,0,0,0,.21.38.94.94,0,0,1,.22.59.79.79,0,0,1-.33.64,1,1,0,0,0-.37.54,1.46,1.46,0,0,1-.25.54,2.43,2.43,0,0,0-.24,1.05,5.79,5.79,0,0,1-.81,2.12,6.56,6.56,0,0,0-.81,1.82,3.73,3.73,0,0,1-.16.81,2.05,2.05,0,0,0-.11.64,13.6,13.6,0,0,1-.26,1.67c.68,1.61,1.16,2.7,1.45,3.27a3.48,3.48,0,0,1,.43,1.13,5.25,5.25,0,0,1-.54,2.88q-.54.72-2.64.72a3.27,3.27,0,0,1-2.34-.94,2.79,2.79,0,0,0-1.75-.94v-1l-.11-.1h-.86a4.74,4.74,0,0,0-.46-.38,3.35,3.35,0,0,1-.67-.75l-.32-.32a4.79,4.79,0,0,1-.75-1.78L472,78l.1-.86-.1-1.34a2.85,2.85,0,0,1,.1-.86l.11-1.45a4.18,4.18,0,0,1,.22-.94,7.51,7.51,0,0,0,.26-1.72,2.65,2.65,0,0,1,.49-1.53,2.06,2.06,0,0,0,.48-.91,1.1,1.1,0,0,1,.3-.62,2.59,2.59,0,0,0,.4-1.21A2.24,2.24,0,0,1,475.44,65c.35-.64.66-1.25.91-1.82a18.37,18.37,0,0,1,1.18-1.56h.75a3,3,0,0,1-.53-.75c0-1,.37-1.45,1.13-1.45a1.73,1.73,0,0,1,.53.1l.22-.43-.22-.91c0-.61.47-1.22,1.4-1.83a3.62,3.62,0,0,1,1.45-2.79l-.11-.86a6.55,6.55,0,0,0,.91-1.42A14.87,14.87,0,0,1,484.57,49l1.66-2.52.76-.86s0,0,0,0a.68.68,0,0,0,.11-.21,5.3,5.3,0,0,0,.19-.57l.32-.8.38-.43c.93-.25,1.39-.57,1.39-1A2.57,2.57,0,0,0,489,42v-.21a1.77,1.77,0,0,1,.65-1.08,6.54,6.54,0,0,0,1.21-1.79,5.43,5.43,0,0,0,.56-1.43c0-.14-.07-.21-.22-.21a2.3,2.3,0,0,0-2.3,1.23q0,.33-2.1,1.29l-.54.81a1.83,1.83,0,0,1-1.12.59,2.24,2.24,0,0,0-1.27.62c-.52.41-1.65,1.34-3.41,2.79a36.15,36.15,0,0,0-3.86,3.57l-1.24.86c-.5.25-.75.45-.75.59,0,.36-.31.83-.92,1.4l-.65.8a5.38,5.38,0,0,0-.86-.27,1.22,1.22,0,0,0-1,.6c.28.28.43.46.43.53q0,.87-1.62,1.77l-2.32,2.42a9.56,9.56,0,0,1-.8.59,3.15,3.15,0,0,0-1.06,1.21,14.8,14.8,0,0,1-1.91,2.53A14.3,14.3,0,0,1,462,63.14a2,2,0,0,0-.65.72,9.53,9.53,0,0,1-1.56,1.67,3.85,3.85,0,0,0-1.35,2.36c-.68.25-1,.47-1,.65l-.33.53-.43.22a2.42,2.42,0,0,0-.16.72c0,.34-.75.95-2.15,1.83a8,8,0,0,1-2.63,1.32,1,1,0,0,0-.48.21,1.26,1.26,0,0,1-.43.22,7.82,7.82,0,0,1-1.42-.65c-.85-.43-1.46-1.43-1.86-3l.43-1.39-.21-1.13a1.48,1.48,0,0,1,.51-.86,1.88,1.88,0,0,0,.51-1.34c.57-1.29,1-2.21,1.29-2.74l.1-.86a5.7,5.7,0,0,1,.73-1.21,3.11,3.11,0,0,0,.62-1.5,1.13,1.13,0,0,1,.7-1q.58-.21,4.35-6.5V50.6l1.55-2.69c.47-.78,1-1.68,1.72-2.68l.49-1.24a18.13,18.13,0,0,0-1.78-.64,1.34,1.34,0,0,0-.8.43c0,.61-1.06,1.23-3.17,1.88a6.06,6.06,0,0,0-1.66,1.55l-1.51.86a12.2,12.2,0,0,0-1,.86l-.75.7a4.32,4.32,0,0,0-2.31,1.5l-1.45,1a6.66,6.66,0,0,0-.86.8,9.48,9.48,0,0,1-2,1.18l-.86.86-.81.43A12.18,12.18,0,0,0,440.1,57a1.63,1.63,0,0,1-1.13.75l-1.18.43a5,5,0,0,1-2,2.69l-1.55,1.93a7,7,0,0,1-.76.59,1.26,1.26,0,0,1-.75.75c-.46.58-.77,1-.91,1.18l-.64.49c-1,.36-1.45.64-1.45.86l.1,1c0,.4-.43.77-1.28,1.13a1.07,1.07,0,0,0-.62.86,4.25,4.25,0,0,1-.4,1.24h-1a3.88,3.88,0,0,0-1,.53.35.35,0,0,0-.22.11l.22,1.24a2.26,2.26,0,0,1-.86,1.47,11.12,11.12,0,0,0-1.31,1.48c-.31.43-.53.65-.68.65h-.32l-.32.21a2.92,2.92,0,0,1-1.34,2.2l-.65.81a20.7,20.7,0,0,0-1.83,2.68,28,28,0,0,1-2.85,3.92,7.85,7.85,0,0,1-2.47,2c-.75.34-1.56.69-2.42,1l-2.2-.43a2.5,2.5,0,0,0-.94-1c-.41-.25-.62-.52-.62-.81l-.64-1.88a4.15,4.15,0,0,1,.59-1.85,7.52,7.52,0,0,0,.73-1.72A8.16,8.16,0,0,1,408,79.9a7.4,7.4,0,0,0,.49-1.16q0-1.44.45-1.8L411,75.36c.07,0,.11-.07.11-.22V75l-.11-.92c.82-1.39,1.34-2.09,1.56-2.09a1.51,1.51,0,0,1,.43.11L412.71,71c0-.14.19-.37.59-.69a3.67,3.67,0,0,0,.91-1.08l-.21-.64v-.22a2.85,2.85,0,0,1,1.34-2.09c.14-.29.43-1,.86-2.2l1.4-2.48a3.35,3.35,0,0,1,1.14-1.36,1.16,1.16,0,0,0,.64-.84,3.15,3.15,0,0,1,.38-1.07c0,.18,0,.19.08,0a10.29,10.29,0,0,0,.27-1A2,2,0,0,1,421.33,56c.83-2.11,1.48-3.17,1.95-3.17a1.35,1.35,0,0,1,.59.21h.22c.57,0,.86-.21.86-.64a.19.19,0,0,0-.22-.21,1.31,1.31,0,0,1-.86.53c-.25,0-.38-.07-.38-.21a.29.29,0,0,1,.16-.22l1.19-2.41.11-1a7.39,7.39,0,0,1,.85-1l.92-1.24v-.53A6.8,6.8,0,0,1,427.2,45a8.72,8.72,0,0,0,.7-2l.91-1.34A3.58,3.58,0,0,0,429,40.5c0-.54-.07-.81-.22-.81l-3.11.6a32.13,32.13,0,0,0-3.61,2l-1.25.26a11.73,11.73,0,0,0-1.43.73,6.21,6.21,0,0,1-2.32.81,2.83,2.83,0,0,0-1.75.77l-.22.11h-1a10.47,10.47,0,0,0-.8,1.05c-.15.23-.27.35-.38.35q-5.43,3.6-6.87,4.35a13,13,0,0,0-2.21,1.37,6.73,6.73,0,0,1-1.29.88v.65a3.07,3.07,0,0,1-1.31,2.07A3.76,3.76,0,0,1,399,56.88a2.41,2.41,0,0,1-1-.35,4.52,4.52,0,0,0-1.5-.45c-.56-.08-.83-.76-.83-2q0-2.74,4.51-5a7.49,7.49,0,0,0,1.29-.75,36.1,36.1,0,0,1,4.78-2.1l1.55-.75a4.91,4.91,0,0,1,1.8-1c.84-.31,1.51-.57,2-.78a6.72,6.72,0,0,1,1.16-.43Zm50.4,13,.54-1v-.1c0-.07-.07-.11-.21-.11-.36,0-.65.36-.86,1.07q.11.33.21.33A.34.34,0,0,0,463.43,55.43Z" transform="translate(-17.33 -17.44)"></path>
    <path class="c" d="M521.88,81.86l-2.53,2.2a.66.66,0,0,0-.43-.22c-.36,0-.8.33-1.32,1s-.89,1-1.1,1l-.54-.11A6.91,6.91,0,0,1,514,86.85a8.23,8.23,0,0,0-1.43.59,4,4,0,0,1-1.5.49,1.75,1.75,0,0,0-1.1.45,3.45,3.45,0,0,1-2.1.41l-.86-.11a3.21,3.21,0,0,1-.91.32,1.37,1.37,0,0,1-.92-.46,1.79,1.79,0,0,0-1-.51,1.79,1.79,0,0,1-1.15-.75,4.12,4.12,0,0,0-1.1-1,2.27,2.27,0,0,1-.84-.76l-.75-.64a6.3,6.3,0,0,1-1.77-2.36,6.57,6.57,0,0,1-.86-2.69v-.21l.11-1-.11-1.18a3.57,3.57,0,0,0,.54-.91V74.82l1.28-4.3c.08-.17-.07-.41-.43-.69a2.13,2.13,0,0,1-1.07,1,1.06,1.06,0,0,0-.73.75c-.13.4-.34.6-.62.6l-.65-.22a4.9,4.9,0,0,0-.49,1.1,1.34,1.34,0,0,1-1.3,1c-.65,0-1-.25-1-.76l.1-1L493,71a4.35,4.35,0,0,1,.86-1.69,3.26,3.26,0,0,1,1.59-1.45,2.07,2.07,0,0,0,1.24-1,8,8,0,0,1,2.23-2,2.73,2.73,0,0,0,1.67-1.4,6.29,6.29,0,0,1,2-1,3.75,3.75,0,0,0,1.83-1.1,14.59,14.59,0,0,1,3.66-2.25,11.57,11.57,0,0,1,4.44-1.53,4.2,4.2,0,0,0,1.18-.24c.5-.17,1-.31,1.4-.43a6.23,6.23,0,0,0,1.34-.6,2.6,2.6,0,0,1,1.13-.4l1.57.54a12.12,12.12,0,0,1,2.09.7,5.3,5.3,0,0,0,1.11.45,14.08,14.08,0,0,1,2,.94,2.32,2.32,0,0,1,1,2.21,9.78,9.78,0,0,0-.92,1.45c0,.14.42.35,1.24.64.29.54.72,1.24,1.29,2.09l.6,1.88.1,4.41-.1.43c-.4.36-.6.59-.6.7l.17,1.07-.43,1.51a1.34,1.34,0,0,1-.54.91,1,1,0,0,0-.49.54l-.32.42c-.07.11-.22.43-.46,1a4.08,4.08,0,0,1-.77,1.2,1.89,1.89,0,0,0-.54,1,1.19,1.19,0,0,1-.54.86,1.93,1.93,0,0,0-.62.57A1.59,1.59,0,0,1,521.88,81.86Zm-16.7,1.39.22,1.24.11.11h.85l.27.1a8.57,8.57,0,0,0,1.61.22,4,4,0,0,0,2.65-.83,2.85,2.85,0,0,1,1.58-.84c.4,0,.73-.26,1-.8s.44-.81.51-.81h.75l.22-.1a1.83,1.83,0,0,1,1.1-1.78,3.23,3.23,0,0,0,1.55-1.42,3.89,3.89,0,0,1,1-1.34,2.3,2.3,0,0,0,.8-1.21l.43-.65a1.15,1.15,0,0,0,.21-.8l1-1.94a9.23,9.23,0,0,0,.32-2.09,2,2,0,0,0-1.15-1.77A2.63,2.63,0,0,1,519.12,66a3,3,0,0,1,1.26-2.28q1.26-1,1.26-1.26a.28.28,0,0,0-.32-.32,6.62,6.62,0,0,0-1.24.43c-.25.5-1.52,1.16-3.8,2a9.35,9.35,0,0,0-1.23-.53c-.22,0-.43.21-.65.64a2.84,2.84,0,0,1-.64.91h-.7c-.07,0-.3.24-.69.7a1.88,1.88,0,0,1-1.5.7l-.65.64a2.25,2.25,0,0,1-1.07,1.78l-.59.69c-.36.43-.82.94-1.39,1.51l-1,2.42a6.16,6.16,0,0,0-.59,2.09,1.82,1.82,0,0,1-.72.67,1,1,0,0,0-.56.89c0,.07.12.25.37.54a1.24,1.24,0,0,1,.38.64l-.22.7-.21,2Z" transform="translate(-17.33 -17.44)"></path>
    <path class="c" d="M543.79,61.39l.8-.21.33-.7a14.36,14.36,0,0,0,3.76-2.95,1.09,1.09,0,0,1,.48-.43,3.07,3.07,0,0,0,.8-.76,6.49,6.49,0,0,1,4.73-2q3.22,0,3.44,3.92l.32.8a21,21,0,0,1,1.21,3.07,13.73,13.73,0,0,1,.78,2.84,5.45,5.45,0,0,1-.91,2.9c-.51.25-1.71,1.6-3.6,4l-.54.38a10.75,10.75,0,0,1-1.13,1.93c-.72.25-1.07.52-1.07.81v1a1,1,0,0,1-.24.43,7.75,7.75,0,0,0-.68,1.24l-.43.64a2.44,2.44,0,0,0-.42.89,4.19,4.19,0,0,1-.62,1.21,1.63,1.63,0,0,0-.41.86c0,.53.7.8,2.1.8a4.22,4.22,0,0,0,.8-.32l.76.21a1.46,1.46,0,0,0,.53-.34,3.4,3.4,0,0,1,1.32-.57,5.22,5.22,0,0,0,1.56-.64,7.09,7.09,0,0,1,1.61-.75,6,6,0,0,0,1.8-1,6.14,6.14,0,0,1,1.69-1,5.07,5.07,0,0,0,1.56-1,12.59,12.59,0,0,1,1.63-1.27,21.7,21.7,0,0,0,2.91-2.57,5.85,5.85,0,0,1,1.77-1.13,6.91,6.91,0,0,0,.94-1.42c.55-1,1.19-1.43,1.9-1.43s1.13.36,1.13,1.08a1.57,1.57,0,0,1-.54,1.12v.33l.11.86a.85.85,0,0,1,.11.48,1.18,1.18,0,0,1-.4.64,2.45,2.45,0,0,0-.57,1.11,1.23,1.23,0,0,1-1,.88c-.21.79-.49,1.24-.83,1.34a4.36,4.36,0,0,0-1.42,1.08,24.57,24.57,0,0,1-2.58,2.15,18.1,18.1,0,0,0-2.28,1.9c-.41.45-.69.67-.84.67a1.17,1.17,0,0,1-.43-.21,1.17,1.17,0,0,0-.42-.22c-.22,0-.36.26-.43.76l-.22.53a3.29,3.29,0,0,1-.8.43l-.33-.1h-.21c-.43,0-.65.16-.65.48l.33.54v.1c0,.51-.29.76-.86.76-.4,0-1.54.66-3.44,2l-1.56.33-1.29.69a2.41,2.41,0,0,0-.8-.37l-.86.27-1.56.1s-.69-.35-2-1.07a4.67,4.67,0,0,1-2.28-2.15,14.64,14.64,0,0,0-1-2.17,4.25,4.25,0,0,1-.59-1.53,11,11,0,0,1,.43-3.68,10.66,10.66,0,0,0,.54-1.64,2.7,2.7,0,0,1,.62-1.16,5,5,0,0,0,.83-2,24.43,24.43,0,0,1,2.15-3.81,5,5,0,0,0,.91-1.72l.7-1a2.85,2.85,0,0,0,.32-.83c.14-.49.32-.76.54-.84a3.09,3.09,0,0,0,.43-1c0-1-.47-1.56-1.4-1.56-.18,0-.38.19-.59.56A3.21,3.21,0,0,1,548.81,64a5.82,5.82,0,0,0-1.42.8,4.32,4.32,0,0,1-1.16.67,4,4,0,0,0-1.53,1.26l-.91.43c-.29.69-.54,1.06-.75,1.13s-.88.25-2,.54a3.53,3.53,0,0,0-.54.64,1.41,1.41,0,0,1-1.23.59A14.45,14.45,0,0,0,538,71.6a4.06,4.06,0,0,0-1.13.43l-1.08.27a4.81,4.81,0,0,0-.94,1,2.23,2.23,0,0,1-1.9.7q-.81,0-.81-1.29A5.2,5.2,0,0,1,534,68.54a6.71,6.71,0,0,1,2.72-1.67,1.18,1.18,0,0,0,1.07-.64,1.75,1.75,0,0,1,1.05-.89,6,6,0,0,0,1.93-1.56,5.69,5.69,0,0,1,2.39-1.63Z" transform="translate(-17.33 -17.44)"></path>
    <path class="c" d="M580.39,65.58l1.12-.91a1.35,1.35,0,0,0,1.4-1.34,2.88,2.88,0,0,1,1.77-2.15l.64-.91a14.47,14.47,0,0,1,4.41-2.1,4.3,4.3,0,0,0,1.23-1,.29.29,0,0,1,.21-.1l.86.21a5.79,5.79,0,0,0,1.8-.37,6.6,6.6,0,0,1,2.12-.38l2.26-.11a3,3,0,0,1,.88.32,3.69,3.69,0,0,0,1.64.33,2.93,2.93,0,0,1,2.17,1.07,3.06,3.06,0,0,1,1,2,4.92,4.92,0,0,1-1.72,3.38,6.62,6.62,0,0,1-2.73,1.94,6.74,6.74,0,0,1-1.4,1.15,3.92,3.92,0,0,0-1,.75,1.4,1.4,0,0,1-.83.51.38.38,0,0,1-.32-.13.39.39,0,0,0-.32-.14c-.58,0-1.2.7-1.88,2.1l-1-.11a2.83,2.83,0,0,0-1.18,1.29,1.09,1.09,0,0,1-1.13.7c-1.32,1.32-2.22,2-2.68,2a5.34,5.34,0,0,1-.75-.22,1.78,1.78,0,0,0-.43,1.13c0,.43-.29.68-.86.75l-.69.65-.54-.11-1.07,1.13a3.23,3.23,0,0,0-1.67.53c-.07.43-.17,1-.32,1.64s-.21,1-.21,1.1c0,1,.95,1.56,2.84,1.56l2.58-.38a3.6,3.6,0,0,0,1.91-.53,3.61,3.61,0,0,1,1.91-.54,3.17,3.17,0,0,0,1-.22l.54.22a3.56,3.56,0,0,1,1.4-1.45,3.36,3.36,0,0,1,1.61-.64l.54-.33a1.41,1.41,0,0,1,.64-.86l.43-.37a1.2,1.2,0,0,1,.81-.43h.75l.21-.11a2.61,2.61,0,0,1,1.8-1.64,2,2,0,0,0,1.45-.78,1.34,1.34,0,0,1,1-.64,1.92,1.92,0,0,0,1.26-.73,6.49,6.49,0,0,1,1.27-1.15,11.47,11.47,0,0,0,1-.81.85.85,0,0,1,.51-.27c.22,0,.33.17.33.49s.07.48.21.48a.19.19,0,0,0,.22-.21,1.78,1.78,0,0,0-.11-.54v-.38a1.07,1.07,0,0,1,.86-1.07l2.42-1.56c.07-.75.27-1.19.61-1.31a2.55,2.55,0,0,0,.78-.43.84.84,0,0,1,.59-.25c.47,0,.7.27.7.81l-.27,1.4.27,1.45a1.57,1.57,0,0,1-.51.88,3.88,3.88,0,0,0-.78,1.72c-.18.77-.41,1.19-.7,1.26H611A4.51,4.51,0,0,1,609.5,74a1.71,1.71,0,0,0-.89.67l-1.83,2.1c-.36.36-.66.68-.91,1s-.45.43-.59.43l-.43-.43c0-.08-.07-.11-.22-.11-.35,0-.58.21-.67.64a2.46,2.46,0,0,1-.56,1.13,5.69,5.69,0,0,0-2.1,1.4l-.32.1h-1c-.47,0-.79.35-1,1a1.61,1.61,0,0,1-1.53,1.21,3.39,3.39,0,0,0-1.8.64,1.07,1.07,0,0,1-.48.22,7.38,7.38,0,0,0-1.51.86l-4.51,1.61a2.21,2.21,0,0,1-.7.27L587,87a.85.85,0,0,1-.64-.43c-.22-.28-.36-.43-.43-.43l-1,.33a7.31,7.31,0,0,1-2,.32,2.42,2.42,0,0,1-1.19-.38,8.6,8.6,0,0,0-1-.53c-1,0-1.77-.81-2.2-2.42l-.65.11c-.14,0-.62-1.27-1.45-3.82a1.84,1.84,0,0,0-1-.62.94.94,0,0,1-.7-1c0-1.61.35-2.7,1-3.25a3.45,3.45,0,0,0,1.16-1.26l.75-2.8a2.67,2.67,0,0,0,.53-1.07l1.24-2.26C579.56,67.21,579.88,66.59,580.39,65.58Zm11.35-3.22-.64.32a14.49,14.49,0,0,0-1.26.94,11.67,11.67,0,0,1-2,1.34,5.75,5.75,0,0,0-2,2.66,12.5,12.5,0,0,0-1,2.47.29.29,0,0,0,.32.33l1.83-.81a8.57,8.57,0,0,0,1.9-1.23,26,26,0,0,1,2.55-1.83l.43-.43a3.88,3.88,0,0,1,1-.78,5.27,5.27,0,0,0,1.31-1.1l.54-.21a4,4,0,0,1,1.85-1.78c.63-.21.94-.43.94-.64,0-.43-.34-.65-1-.65a2.91,2.91,0,0,0-1.29.54h-1.23a3.92,3.92,0,0,0-1.18.65Z" transform="translate(-17.33 -17.44)"></path>
  </g>
</svg>
