<?xml version="1.0" encoding="UTF-8"?> <svg xmlns="http://www.w3.org/2000/svg" width="50" height="69" viewBox="0 0 50 69" fill="none"><path d="M46.7518 23.6163C46.7518 11.0107 36.061 0.958165 23.2959 2.07512C13.722 2.87294 5.58424 10.2129 3.9886 19.7867C3.19078 23.9354 3.82903 27.765 5.10555 31.2754C5.10555 31.2754 7.81814 39.4131 22.9767 59.0395C24.0937 60.4756 26.3276 60.4756 27.4445 59.0395C42.6031 39.4131 45.3157 31.2754 45.3157 31.2754C46.2731 28.8819 46.7518 26.3289 46.7518 23.6163Z" stroke="#22B14C" stroke-width="2.4661" stroke-miterlimit="10" stroke-linecap="round" stroke-linejoin="round"></path><path d="M39.7308 55.2109C44.9964 56.4875 48.5068 58.4022 48.5068 60.6361C48.5068 64.4657 38.1351 67.4974 25.2104 67.4974C12.4453 67.4974 1.91406 64.4657 1.91406 60.6361C1.91406 58.4022 5.26491 56.4875 10.5305 55.2109" stroke="#22B14C" stroke-width="2.4661" stroke-miterlimit="10" stroke-linecap="round" stroke-linejoin="round"></path><path d="M16.1152 19.3086V30.3185C16.1152 32.0737 17.5513 33.5098 19.3065 33.5098H31.1143C32.8695 33.5098 34.3056 32.0737 34.3056 30.3185V19.3086" stroke="#22B14C" stroke-width="2.4661" stroke-miterlimit="10" stroke-linecap="round" stroke-linejoin="round"></path><path d="M36.38 20.9036L25.2105 12.2871L14.041 20.9036" stroke="#22B14C" stroke-width="2.4661" stroke-miterlimit="10" stroke-linecap="round" stroke-linejoin="round"></path></svg> 