<?xml version="1.0" encoding="UTF-8"?> <svg xmlns="http://www.w3.org/2000/svg" width="94" height="95" viewBox="0 0 94 95" fill="none"><circle cx="47" cy="47.2793" r="47" fill="white"></circle><g clip-path="url(#clip0_2377_1949)"><path d="M72.1875 47.2793C72.1875 50.5293 68.6937 52.9668 67.5562 55.8105C66.3375 58.7355 66.9875 62.9605 64.7938 65.1543C62.6 67.348 58.375 66.698 55.45 67.9168C52.6875 68.973 50.25 72.4668 47 72.4668C43.75 72.4668 41.3125 68.973 38.4688 67.8355C35.5438 66.6168 31.3188 67.2668 29.125 65.073C27.0125 62.8793 27.6625 58.6543 26.4437 55.8105C25.3062 52.9668 21.8125 50.5293 21.8125 47.2793C21.8125 44.0293 25.3062 41.5918 26.4437 38.748C27.6625 35.823 27.0125 31.598 29.2063 29.4043C31.4 27.2105 35.625 27.8605 38.55 26.6418C41.3125 25.5855 43.75 22.0918 47 22.0918C50.25 22.0918 52.6875 25.5855 55.5312 26.723C58.4562 27.9418 62.6812 27.2918 64.875 29.4855C67.0688 31.6793 66.4188 35.9043 67.6375 38.8293C68.6938 41.5918 72.1875 44.0293 72.1875 47.2793Z" stroke="#22B14C" stroke-width="1.8" stroke-miterlimit="10" stroke-linecap="round" stroke-linejoin="round"></path><path d="M47 30.2168C51.3875 30.2168 55.6937 31.923 59.025 35.2543C62.3562 38.5855 64.0625 42.8918 64.0625 47.2793" stroke="#22B14C" stroke-width="1.8" stroke-miterlimit="10" stroke-linecap="round" stroke-linejoin="round"></path><path d="M59.025 59.3039C55.6937 62.6352 51.3875 64.3414 47 64.3414C42.6125 64.3414 38.3063 62.6352 34.975 59.3039C31.6438 55.9727 29.9375 51.6664 29.9375 47.2789C29.9375 42.8914 31.6438 38.5852 34.975 35.2539" stroke="#22B14C" stroke-width="1.8" stroke-miterlimit="10" stroke-linecap="round" stroke-linejoin="round"></path><path d="M54.3125 38.3418L44.5625 49.7168L39.6875 44.8418L36.4375 48.0918L44.5625 56.2168L57.5625 41.5918L54.3125 38.3418Z" stroke="#22B14C" stroke-width="1.8" stroke-miterlimit="10" stroke-linecap="round" stroke-linejoin="round"></path></g><defs><clipPath id="clip0_2377_1949"><rect width="52" height="52" fill="white" transform="translate(21 21.2793)"></rect></clipPath></defs></svg> 