<?xml version="1.0" encoding="UTF-8"?> <svg xmlns="http://www.w3.org/2000/svg" width="150" height="150" viewBox="0 0 150 150" fill="none"><g clip-path="url(#clip0_3525_2142)"><path d="M128.217 21.7826C98.6814 -7.46389 51.0292 -7.22981 21.7826 22.3058C-7.26088 51.6363 -7.26088 98.8869 21.7826 128.217C51.3182 157.464 98.9705 157.23 128.217 127.694C157.261 98.3638 157.261 51.1131 128.217 21.7826ZM74.9998 144.214C36.835 144.214 5.78604 113.165 5.78604 74.9998C5.78604 36.8347 36.8347 5.7864 74.9998 5.7864C113.165 5.7864 144.214 36.835 144.214 75.0002C144.214 113.165 113.165 144.214 74.9998 144.214Z" fill="white"></path><path d="M115.798 72.3804V72.3838L54.692 37.1048C53.2458 36.2698 51.3963 36.7653 50.5613 38.2118C50.2962 38.6711 50.1562 39.1919 50.1562 39.7225V110.28C50.1569 111.95 51.5116 113.303 53.1817 113.302C53.712 113.302 54.233 113.163 54.6923 112.897L115.799 77.6184C117.245 76.7837 117.741 74.9342 116.906 73.4877C116.64 73.0277 116.259 72.6459 115.798 72.3804Z" fill="white"></path></g><defs><clipPath id="clip0_3525_2142"><rect width="150" height="150" fill="white"></rect></clipPath></defs></svg> 