<?xml version="1.0" encoding="UTF-8"?> <svg xmlns="http://www.w3.org/2000/svg" width="94" height="95" viewBox="0 0 94 95" fill="none"><circle cx="47" cy="47.2793" r="47" fill="white"></circle><g clip-path="url(#clip0_2377_1906)"><path d="M65 36.7168V26.1543H57.6875" stroke="#22B14C" stroke-width="1.8" stroke-miterlimit="10" stroke-linecap="round" stroke-linejoin="round"></path><path d="M33.3125 26.1543H26.8125V72.4668H65V61.0918" stroke="#22B14C" stroke-width="1.8" stroke-miterlimit="10" stroke-linecap="round" stroke-linejoin="round"></path><path d="M54.4375 29.4043V26.9668C54.4375 26.073 53.7063 25.3418 52.8125 25.3418V22.0918H38.1875V25.3418C37.2937 25.3418 36.5625 26.073 36.5625 26.9668V29.4043H54.4375Z" stroke="#22B14C" stroke-width="1.8" stroke-miterlimit="10" stroke-linecap="round" stroke-linejoin="round"></path><path d="M43.0625 25.3418V26.1543H47.9375V25.3418" stroke="#22B14C" stroke-width="1.8" stroke-miterlimit="10" stroke-linecap="round" stroke-linejoin="round"></path><path d="M36.5625 42.4043L39 44.8418L43.0625 38.3418" stroke="#22B14C" stroke-width="1.8" stroke-miterlimit="10" stroke-linecap="round" stroke-linejoin="round"></path><path d="M39.325 38.3418H33.3125V48.0918H43.0625V44.8418" stroke="#22B14C" stroke-width="1.8" stroke-miterlimit="10" stroke-linecap="round" stroke-linejoin="round"></path><path d="M39 54.5918H33.3125V64.3418H43.0625V61.0918" stroke="#22B14C" stroke-width="1.8" stroke-miterlimit="10" stroke-linecap="round" stroke-linejoin="round"></path><path d="M36.5625 58.6543L39 61.0918L43.0625 54.5918" stroke="#22B14C" stroke-width="1.8" stroke-miterlimit="10" stroke-linecap="round" stroke-linejoin="round"></path><path d="M49.1562 57.4355C47.5312 59.0605 47.5312 61.5793 49.1562 63.2043C50.7812 64.8293 53.3 64.8293 54.925 63.2043L72.8 45.3293C74.425 43.7043 74.425 41.1855 72.8 39.5605C71.175 37.9355 68.6562 37.9355 67.0312 39.5605L49.1562 57.4355Z" stroke="#22B14C" stroke-width="1.8" stroke-miterlimit="10" stroke-linecap="round" stroke-linejoin="round"></path><path d="M62.9688 43.542L69.875 50.4482C70.525 51.0982 70.525 52.0732 69.875 52.7232L65 57.842" stroke="#22B14C" stroke-width="1.8" stroke-miterlimit="10" stroke-linecap="round" stroke-linejoin="round"></path><path d="M71.0109 47.0354L65.2422 41.2666" stroke="#22B14C" stroke-width="1.8" stroke-miterlimit="10" stroke-linecap="round" stroke-linejoin="round"></path><path d="M56.0617 61.9855L50.293 56.2168" stroke="#22B14C" stroke-width="1.8" stroke-miterlimit="10" stroke-linecap="round" stroke-linejoin="round"></path><path d="M49.157 63.123L48.0195 64.2605" stroke="#22B14C" stroke-width="1.8" stroke-miterlimit="10" stroke-linecap="round" stroke-linejoin="round"></path></g><defs><clipPath id="clip0_2377_1906"><rect width="48.75" height="52" fill="white" transform="translate(26 21.2793)"></rect></clipPath></defs></svg> 