<?xml version="1.0" encoding="UTF-8"?> <svg xmlns="http://www.w3.org/2000/svg" width="67" height="61" viewBox="0 0 67 61" fill="none"><path d="M14.8903 46.6895H5.68629C4.60091 46.6895 3.60235 47.3407 3.12479 48.3392L0.867188 53.4622H19.7094L17.4518 48.3827C16.9743 47.3407 15.9757 46.6895 14.8903 46.6895Z" stroke="#22B14C" stroke-width="1.7" stroke-miterlimit="10" stroke-linecap="round" stroke-linejoin="round"></path><path d="M13.2404 46.6895H7.33594L8.33449 40.6113H12.2419L13.2404 46.6895Z" stroke="#22B14C" stroke-width="1.7" stroke-miterlimit="10" stroke-linecap="round" stroke-linejoin="round"></path><path d="M10.2891 40.6114V8.70117" stroke="#22B14C" stroke-width="1.7" stroke-miterlimit="10" stroke-linecap="round" stroke-linejoin="round"></path><path d="M10.2891 57.6738V59.4104" stroke="#22B14C" stroke-width="1.7" stroke-miterlimit="10" stroke-linecap="round" stroke-linejoin="round"></path><path d="M6.11998 57.6738L5.46875 59.4104" stroke="#22B14C" stroke-width="1.7" stroke-miterlimit="10" stroke-linecap="round" stroke-linejoin="round"></path><path d="M14.457 57.6738L15.0648 59.4104" stroke="#22B14C" stroke-width="1.7" stroke-miterlimit="10" stroke-linecap="round" stroke-linejoin="round"></path><path d="M38.1169 39.0918H28.9129C27.8275 39.0918 26.8289 39.743 26.3513 40.7416L24.0938 45.8212H42.936L40.6784 40.7416C40.2008 39.743 39.2023 39.0918 38.1169 39.0918Z" stroke="#22B14C" stroke-width="1.7" stroke-miterlimit="10" stroke-linecap="round" stroke-linejoin="round"></path><path d="M36.467 39.0923H30.5625L31.5611 32.9707H35.4684L36.467 39.0923Z" stroke="#22B14C" stroke-width="1.7" stroke-miterlimit="10" stroke-linecap="round" stroke-linejoin="round"></path><path d="M33.5156 32.9703V8.70117" stroke="#22B14C" stroke-width="1.7" stroke-miterlimit="10" stroke-linecap="round" stroke-linejoin="round"></path><path d="M33.5156 50.0322V51.7688" stroke="#22B14C" stroke-width="1.7" stroke-miterlimit="10" stroke-linecap="round" stroke-linejoin="round"></path><path d="M29.3465 50.0322L28.6953 51.7688" stroke="#22B14C" stroke-width="1.7" stroke-miterlimit="10" stroke-linecap="round" stroke-linejoin="round"></path><path d="M37.6836 50.0322L38.2914 51.7688" stroke="#22B14C" stroke-width="1.7" stroke-miterlimit="10" stroke-linecap="round" stroke-linejoin="round"></path><path d="M61.3435 31.4512H52.1394C51.054 31.4512 50.0555 32.1024 49.5779 33.101L47.3203 38.1805H66.1626L63.905 33.101C63.4274 32.1024 62.4289 31.4512 61.3435 31.4512Z" stroke="#22B14C" stroke-width="1.7" stroke-miterlimit="10" stroke-linecap="round" stroke-linejoin="round"></path><path d="M59.694 31.4507H53.7461L54.7881 25.3291H58.6954L59.694 31.4507Z" stroke="#22B14C" stroke-width="1.7" stroke-miterlimit="10" stroke-linecap="round" stroke-linejoin="round"></path><path d="M56.7422 25.3292V8.70117" stroke="#22B14C" stroke-width="1.7" stroke-miterlimit="10" stroke-linecap="round" stroke-linejoin="round"></path><path d="M56.7422 42.3916V44.1282" stroke="#22B14C" stroke-width="1.7" stroke-miterlimit="10" stroke-linecap="round" stroke-linejoin="round"></path><path d="M52.5731 42.3916L51.9219 44.1282" stroke="#22B14C" stroke-width="1.7" stroke-miterlimit="10" stroke-linecap="round" stroke-linejoin="round"></path><path d="M60.9102 42.3916L61.518 44.1282" stroke="#22B14C" stroke-width="1.7" stroke-miterlimit="10" stroke-linecap="round" stroke-linejoin="round"></path><path d="M66.1205 1.14648H0.867188V4.22897H66.1205V1.14648Z" stroke="#22B14C" stroke-width="1.7" stroke-miterlimit="10" stroke-linecap="round" stroke-linejoin="round"></path></svg> 