<?xml version="1.0" encoding="UTF-8"?>
<svg id="Capa_1" xmlns="http://www.w3.org/2000/svg" version="1.1" viewBox="0 0 58 56">
  <!-- Generator: Adobe Illustrator 29.1.0, SVG Export Plug-In . SVG Version: 2.1.0 Build 142)  -->
  <defs>
    <style>
      .st0 {
        fill: #fff;
      }

      .st1 {
        fill: #22b14c;
      }

      .st2 {
        fill: #20a041;
      }
    </style>
  </defs>
  <path class="st1" d="M25,8.6C11.2,8.6,0,18.6,0,31c0,4.5,1.5,8.8,4.1,12.3-.3,4.1-1.3,9.8-4.1,12.7,0,0,8.5-1.2,14.3-4.7h0c1.8-1.1,3.8-2.4,4.3-2.8.3-.4.9-.5,1.3-.3.3.2.5.5.5.9,0,.6,0,.8-3.7,3,2.7.8,5.5,1.3,8.3,1.3,13.8,0,25-10,25-22.4s-11.2-22.4-25-22.4Z"/>
  <path class="st2" d="M58,22.4C58,10,46.8,0,33,0S14.4,5.2,10.4,12.8c4.4-2.8,9.4-4.2,14.6-4.2,13.8,0,25,10,25,22.4,0,4.6-1.6,9.1-4.4,12.7,4,1.8,8.1,3,12.4,3.7-2.8-2.8-3.8-8.6-4.1-12.6,2.7-3.6,4.1-7.9,4.1-12.4Z"/>
  <path class="st0" d="M32.5,25h-14c-.6,0-1-.4-1-1s.4-1,1-1h14c.6,0,1,.4,1,1s-.4,1-1,1Z"/>
  <path class="st0" d="M38,32H13c-.6,0-1-.4-1-1s.4-1,1-1h25c.6,0,1,.4,1,1s-.4,1-1,1Z"/>
  <path class="st0" d="M38,39H13c-.6,0-1-.4-1-1s.4-1,1-1h25c.6,0,1,.4,1,1s-.4,1-1,1Z"/>
</svg>