<?xml version="1.0" encoding="UTF-8"?> <svg xmlns="http://www.w3.org/2000/svg" width="94" height="95" viewBox="0 0 94 95" fill="none"><circle cx="47" cy="47.2793" r="47" fill="white"></circle><path d="M63.6113 68.4375H51.3887C51.1426 68.4375 50.9238 68.3418 50.7324 68.1504C50.5684 67.9863 50.4863 67.7949 50.4863 67.5762V56.1738H43.5137V67.5762C43.5137 67.7949 43.418 67.9863 43.2266 68.1504C43.0625 68.3418 42.8574 68.4375 42.6113 68.4375H30.3887C30.1426 68.4375 29.9238 68.3418 29.7324 68.1504C29.5684 67.9863 29.4863 67.7949 29.4863 67.5762V45.6738H26.8613C26.6973 45.6738 26.5332 45.6328 26.3691 45.5508C26.2324 45.4414 26.123 45.291 26.041 45.0996C25.9863 44.9355 25.9727 44.7715 26 44.6074C26.0547 44.416 26.1504 44.2656 26.2871 44.1562L46.4258 26.6426C46.5898 26.5059 46.7812 26.4375 47 26.4375C47.2188 26.4375 47.4102 26.5059 47.5742 26.6426L52.25 30.7031V27.2988C52.25 27.0527 52.332 26.8477 52.4961 26.6836C52.6875 26.5195 52.8926 26.4375 53.1113 26.4375H60.125C60.3711 26.4375 60.5762 26.5195 60.7402 26.6836C60.9043 26.8477 60.9863 27.0527 60.9863 27.2988V38.332L67.7129 44.1562C67.8496 44.2656 67.9316 44.416 67.959 44.6074C68.0137 44.7715 68.0137 44.9355 67.959 45.0996C67.877 45.291 67.7539 45.4414 67.5898 45.5508C67.4531 45.6328 67.3027 45.6738 67.1387 45.6738H64.5137V67.5762C64.5137 67.7949 64.418 67.9863 64.2266 68.1504C64.0625 68.3418 63.8574 68.4375 63.6113 68.4375ZM52.25 66.6738H62.75V44.8125C62.75 44.5664 62.832 44.3613 62.9961 44.1973C63.1875 44.0332 63.3926 43.9512 63.6113 43.9512H64.8008L59.2227 39.1113C59.0586 38.9473 58.9629 38.7559 58.9355 38.5371C58.9082 38.291 58.9766 38.0723 59.1406 37.8809C59.1406 37.8535 59.1543 37.8398 59.1816 37.8398C59.209 37.8125 59.2363 37.7852 59.2637 37.7578V28.2012H54.0137V32.6309C54.0137 32.7949 53.959 32.959 53.8496 33.123C53.7676 33.2598 53.6445 33.3555 53.4805 33.4102C53.3438 33.4922 53.1797 33.5195 52.9883 33.4922C52.8242 33.4648 52.6738 33.3965 52.5371 33.2871L47 28.4473L29.1992 43.9512H30.3887C30.6074 43.9512 30.7988 44.0332 30.9629 44.1973C31.1543 44.3613 31.25 44.5664 31.25 44.8125V66.6738H41.75V55.3125C41.75 55.0664 41.832 54.8613 41.9961 54.6973C42.1875 54.5332 42.3926 54.4512 42.6113 54.4512H51.3887C51.6074 54.4512 51.7988 54.5332 51.9629 54.6973C52.1543 54.8613 52.25 55.0664 52.25 55.3125V66.6738Z" fill="#22B14C"></path></svg> 