<?xml version="1.0" encoding="UTF-8"?> <svg xmlns="http://www.w3.org/2000/svg" width="94" height="95" viewBox="0 0 94 95" fill="none"><circle cx="47" cy="47.2793" r="47" fill="white"></circle><g clip-path="url(#clip0_2377_1929)"><path d="M47 37.1422L27.5 31.6172" stroke="#22B14C" stroke-width="1.8" stroke-miterlimit="10" stroke-linecap="round" stroke-linejoin="round"></path><path d="M66.5 48.8416V40.3916" stroke="#22B14C" stroke-width="1.8" stroke-miterlimit="10" stroke-linecap="round" stroke-linejoin="round"></path><path d="M27.5 40.3916V53.5541C27.5 54.2854 27.9875 54.9354 28.7188 55.0979L43.8313 59.2416" stroke="#22B14C" stroke-width="1.8" stroke-miterlimit="10" stroke-linecap="round" stroke-linejoin="round"></path><path d="M47 52.9047V37.1422L66.5 31.6172" stroke="#22B14C" stroke-width="1.8" stroke-miterlimit="10" stroke-linecap="round" stroke-linejoin="round"></path><path d="M46.9981 37.4668L42.0419 43.8043C41.6356 44.373 40.9044 44.6168 40.2544 44.373L22.3794 38.4418C21.8106 38.2793 21.5669 37.548 22.0544 37.0605L27.5794 31.5355L46.9981 26.0918" stroke="#22B14C" stroke-width="1.8" stroke-miterlimit="10" stroke-linecap="round" stroke-linejoin="round"></path><path d="M47 37.4668L51.9562 43.8043C52.3625 44.373 53.0937 44.6168 53.7437 44.373L71.6187 38.4418C72.1875 38.2793 72.4313 37.548 71.9438 37.0605L66.4188 31.5355L47 26.0918" stroke="#22B14C" stroke-width="1.8" stroke-miterlimit="10" stroke-linecap="round" stroke-linejoin="round"></path><path d="M47 26.1729V31.7791" stroke="#22B14C" stroke-width="1.8" stroke-miterlimit="10" stroke-linecap="round" stroke-linejoin="round"></path><path d="M59.1875 76.4668C66.3672 76.4668 72.1875 70.6465 72.1875 63.4668C72.1875 56.2871 66.3672 50.4668 59.1875 50.4668C52.0078 50.4668 46.1875 56.2871 46.1875 63.4668C46.1875 70.6465 52.0078 76.4668 59.1875 76.4668Z" stroke="#22B14C" stroke-width="1.8" stroke-miterlimit="10" stroke-linecap="round" stroke-linejoin="round"></path><path d="M53.5 64.9293L57.8062 69.1543L64.875 57.7793" stroke="#22B14C" stroke-width="1.8" stroke-miterlimit="10" stroke-linecap="round" stroke-linejoin="round"></path></g><defs><clipPath id="clip0_2377_1929"><rect width="52" height="52" fill="white" transform="translate(21 25.2793)"></rect></clipPath></defs></svg> 