<?xml version="1.0" encoding="UTF-8"?> <svg xmlns="http://www.w3.org/2000/svg" width="114" height="19" viewBox="0 0 114 19" fill="none"><path d="M4.194 18.5136L6.548 11.5176L0.872 7.71165H7.824L10.31 0.209647L12.84 7.71165H19.748L14.072 11.5176L16.47 18.5136L10.31 14.0476L4.194 18.5136ZM27.5131 18.5136L29.8671 11.5176L24.1911 7.71165H31.1431L33.6291 0.209647L36.1591 7.71165H43.0671L37.3911 11.5176L39.7891 18.5136L33.6291 14.0476L27.5131 18.5136ZM50.8323 18.5136L53.1863 11.5176L47.5103 7.71165H54.4623L56.9483 0.209647L59.4783 7.71165H66.3863L60.7103 11.5176L63.1083 18.5136L56.9483 14.0476L50.8323 18.5136ZM74.1514 18.5136L76.5054 11.5176L70.8294 7.71165H77.7814L80.2674 0.209647L82.7974 7.71165H89.7054L84.0294 11.5176L86.4274 18.5136L80.2674 14.0476L74.1514 18.5136ZM97.4706 18.5136L99.8246 11.5176L94.1486 7.71165H101.101L103.587 0.209647L106.117 7.71165H113.025L107.349 11.5176L109.747 18.5136L103.587 14.0476L97.4706 18.5136Z" fill="#22B14C"></path></svg> 