<?xml version="1.0" encoding="UTF-8"?> <svg xmlns="http://www.w3.org/2000/svg" width="78" height="16" viewBox="0 0 78 16" fill="none"><path d="M2.886 15.806L4.812 10.082L0.168 6.968H5.856L7.89 0.829999L9.96 6.968H15.612L10.968 10.082L12.93 15.806L7.89 12.152L2.886 15.806ZM18.3653 15.806L20.2913 10.082L15.6473 6.968H21.3353L23.3693 0.829999L25.4393 6.968H31.0913L26.4473 10.082L28.4093 15.806L23.3693 12.152L18.3653 15.806ZM33.8446 15.806L35.7706 10.082L31.1266 6.968H36.8146L38.8486 0.829999L40.9186 6.968H46.5706L41.9266 10.082L43.8886 15.806L38.8486 12.152L33.8446 15.806ZM49.3239 15.806L51.2499 10.082L46.6059 6.968H52.2939L54.3279 0.829999L56.3979 6.968H62.0499L57.4059 10.082L59.3679 15.806L54.3279 12.152L49.3239 15.806ZM64.8032 15.806L66.7292 10.082L62.0852 6.968H67.7732L69.8072 0.829999L71.8772 6.968H77.5292L72.8852 10.082L74.8472 15.806L69.8072 12.152L64.8032 15.806Z" fill="#22B14C"></path></svg> 