<?xml version="1.0" encoding="UTF-8"?> <svg xmlns="http://www.w3.org/2000/svg" width="76" height="25" viewBox="0 0 76 25" fill="none"><path d="M6.65074 15.0684L7.68893 14.8302C7.71061 14.8252 7.7473 14.817 7.79066 14.8029C8.07742 14.7266 8.32314 14.5429 8.47605 14.2905C8.62895 14.0381 8.67712 13.7366 8.61037 13.4497L8.6062 13.4315C8.57188 13.294 8.51192 13.1641 8.42942 13.0485C8.31317 12.9021 8.16928 12.7796 8.0058 12.6878C7.81334 12.5791 7.61193 12.4866 7.40374 12.4116L6.26549 11.9988C5.62673 11.7631 4.98797 11.5339 4.34255 11.3098C3.92477 11.1625 3.57037 11.0327 3.26267 10.9376C3.2041 10.9215 3.14599 10.9038 3.08839 10.8846C2.71647 10.7721 2.45463 10.725 2.23365 10.7233C2.08596 10.7179 1.93884 10.7444 1.80253 10.8011C1.66013 10.8622 1.53227 10.9524 1.42729 11.0658C1.3752 11.1244 1.32621 11.1857 1.28052 11.2494C1.19168 11.3848 1.1184 11.5296 1.06204 11.6812C0.85057 12.3007 0.745155 12.9511 0.750171 13.6052C0.75434 14.1958 0.770184 14.9543 1.0979 15.4688C1.17712 15.6011 1.28302 15.7153 1.40894 15.8038C1.64243 15.9634 1.87758 15.9849 2.12358 16.0023C2.49049 16.0279 2.84489 15.9394 3.19929 15.8575L6.64824 15.0676L6.65074 15.0684ZM18.2334 9.60167C17.95 9.01161 17.5689 8.47283 17.106 8.00772C17.0462 7.94857 16.9821 7.89383 16.9142 7.84394C16.8515 7.79729 16.7864 7.75394 16.7191 7.71408C16.6498 7.67642 16.5785 7.64246 16.5056 7.61234C16.3616 7.55619 16.2073 7.53082 16.0528 7.53789C15.9052 7.54616 15.7609 7.58752 15.63 7.65617C15.4324 7.75378 15.2181 7.91094 14.9329 8.17315C14.8937 8.21203 14.8445 8.25587 14.7995 8.29723C14.5651 8.51643 14.3033 8.78691 13.9923 9.10124C13.5111 9.58348 13.0383 10.0682 12.5672 10.5571L11.7249 11.4239C11.5711 11.582 11.4311 11.7528 11.3063 11.9343C11.1995 12.0879 11.1239 12.2607 11.0837 12.443C11.0611 12.583 11.0645 12.726 11.0937 12.8649L11.0978 12.883C11.1644 13.1697 11.3405 13.4196 11.589 13.58C11.8376 13.7405 12.1392 13.799 12.4304 13.7433C12.4655 13.7384 12.5002 13.7318 12.5346 13.7235L17.0226 12.6945C17.377 12.6134 17.7356 12.5389 18.0533 12.3553C18.2668 12.2337 18.4694 12.1121 18.6087 11.8673C18.6828 11.7324 18.7277 11.5837 18.7404 11.4305C18.8096 10.8234 18.4902 10.1344 18.2334 9.60167ZM10.1989 11.4736C10.5241 11.0682 10.5241 10.4644 10.5525 9.96976C10.6509 8.31956 10.7535 6.66936 10.836 5.01834C10.8669 4.393 10.9344 3.77593 10.8969 3.14563C10.866 2.62617 10.8627 2.02895 10.5316 1.60213C9.94793 0.849409 8.7021 0.911447 7.85237 1.0289C7.59024 1.06482 7.33004 1.11341 7.07269 1.17449C6.81418 1.2357 6.55735 1.3027 6.30718 1.38293C5.49164 1.64763 4.34505 2.134 4.15159 3.06622C4.04151 3.59313 4.30169 4.13161 4.50182 4.61302C4.74615 5.19535 5.07887 5.7206 5.3824 6.26901C6.18543 7.71738 7.00264 9.15749 7.81735 10.5984C8.06168 11.0285 8.32602 11.5728 8.79716 11.7962C8.82885 11.8094 8.86054 11.821 8.89306 11.8317C9.10403 11.9111 9.33502 11.926 9.55433 11.8756L9.59353 11.8673C9.79699 11.8119 9.98044 11.7019 10.1247 11.5505C10.1514 11.5257 10.1747 11.5009 10.1989 11.4736ZM9.8095 15.8915C9.68257 15.7143 9.50242 15.5816 9.29483 15.5122C9.08723 15.4428 8.86283 15.4404 8.65373 15.5052C8.60454 15.5212 8.5566 15.5409 8.51031 15.5639C8.43865 15.6002 8.37029 15.6425 8.306 15.6905C8.12243 15.8339 7.95845 16.0005 7.81818 16.1859C7.78232 16.2314 7.74897 16.2918 7.7056 16.3315L6.98346 17.3158C6.57486 17.8684 6.17042 18.4218 5.77099 18.9834C5.50915 19.3465 5.284 19.6534 5.10472 19.9239C5.07136 19.9752 5.03634 20.0314 5.00465 20.0778C4.79035 20.4053 4.66943 20.6452 4.60689 20.8586C4.56017 21.0004 4.54537 21.1506 4.56353 21.2987C4.58354 21.4525 4.63608 21.6006 4.71696 21.7337C4.76032 21.7999 4.80702 21.8644 4.85705 21.9265C4.96512 22.0499 5.0868 22.1608 5.2198 22.2573C5.71846 22.6014 6.26382 22.8488 6.83753 23.0398C7.31535 23.197 7.81151 23.2913 8.31351 23.3194C8.3994 23.3236 8.48529 23.3219 8.57034 23.3145C8.64922 23.3071 8.72769 23.2961 8.8055 23.2814C8.88335 23.2634 8.96018 23.2413 9.03565 23.2152C9.18239 23.1607 9.31592 23.0761 9.42758 22.9671C9.53348 22.862 9.61521 22.7354 9.66607 22.5957C9.74946 22.3889 9.8045 22.1275 9.84119 21.7387C9.84369 21.6833 9.85203 21.6171 9.85786 21.5567C9.88621 21.2341 9.89956 20.8536 9.91957 20.4086C9.95543 19.7229 9.98295 19.0405 10.0046 18.3564L10.0513 17.1388C10.0622 16.8592 10.053 16.5482 9.97461 16.2695C9.94014 16.1356 9.88441 16.008 9.8095 15.8915ZM17.9591 17.7964C17.809 17.6318 17.5955 17.4689 17.2586 17.267C17.2102 17.2397 17.1527 17.2042 17.1002 17.1727C16.82 17.0048 16.4822 16.8295 16.0878 16.6169C15.4816 16.286 14.8754 15.9651 14.2624 15.6458L13.1809 15.0767C13.125 15.0602 13.0683 15.0205 13.015 14.9948C12.807 14.8894 12.5861 14.8113 12.3579 14.7624C12.2792 14.7473 12.1994 14.739 12.1194 14.7376C12.0675 14.7373 12.0157 14.7403 11.9643 14.7467C11.7477 14.7798 11.5473 14.88 11.3916 15.0328C11.2358 15.1857 11.1327 15.3834 11.097 15.5978C11.0812 15.7343 11.0862 15.8724 11.1129 16.0064C11.1654 16.2926 11.2938 16.5747 11.4272 16.822L12.0043 17.8965C12.3262 18.502 12.6514 19.1042 12.9849 19.7047C13.2001 20.096 13.3794 20.431 13.547 20.7089C13.5787 20.761 13.6145 20.8172 13.642 20.866C13.8463 21.1994 14.0098 21.4095 14.1757 21.5609C14.2863 21.6663 14.4189 21.7462 14.5642 21.7949C14.7096 21.8435 14.8639 21.8596 15.0163 21.8421C15.0956 21.8325 15.1744 21.8187 15.2523 21.8007C15.4118 21.7584 15.5659 21.6982 15.7117 21.6213C16.1507 21.3772 16.5552 21.0768 16.915 20.7279C17.347 20.3061 17.7289 19.8461 18.0258 19.3201C18.0675 19.2456 18.1025 19.1687 18.1325 19.0885C18.1605 19.015 18.1847 18.9402 18.2051 18.8643C18.2226 18.7865 18.2359 18.7088 18.2451 18.6302C18.26 18.4758 18.2421 18.3199 18.1925 18.1728C18.1436 18.0316 18.0639 17.9028 17.9591 17.7956V17.7964Z" fill="#333333"></path><path d="M41.554 7.89165L36.054 20.5856C35.5407 21.8616 34.9173 22.7563 34.184 23.2696C33.4507 23.7976 32.5633 24.0616 31.522 24.0616C30.9353 24.0616 30.356 23.9663 29.784 23.7756C29.212 23.585 28.7427 23.321 28.376 22.9836L29.476 20.9596C29.74 21.209 30.048 21.407 30.4 21.5536C30.7667 21.7003 31.1333 21.7736 31.5 21.7736C31.984 21.7736 32.38 21.649 32.688 21.3996C33.0107 21.1503 33.304 20.7323 33.568 20.1456L33.766 19.6836L28.64 7.89165H31.5L35.196 16.5816L38.914 7.89165H41.554ZM53.5017 13.8316C53.5017 14.0223 53.487 14.2936 53.4577 14.6456H44.2397C44.401 15.511 44.819 16.2003 45.4937 16.7136C46.183 17.2123 47.0337 17.4616 48.0457 17.4616C49.3364 17.4616 50.3997 17.0363 51.2357 16.1856L52.7097 17.8796C52.1817 18.5103 51.5144 18.987 50.7077 19.3096C49.901 19.6323 48.9917 19.7936 47.9797 19.7936C46.689 19.7936 45.5524 19.537 44.5697 19.0236C43.587 18.5103 42.8244 17.799 42.2817 16.8896C41.7537 15.9656 41.4897 14.9243 41.4897 13.7656C41.4897 12.6216 41.7464 11.595 42.2597 10.6856C42.7877 9.76165 43.5137 9.04298 44.4377 8.52965C45.3617 8.01631 46.403 7.75965 47.5617 7.75965C48.7057 7.75965 49.725 8.01631 50.6197 8.52965C51.529 9.02831 52.233 9.73965 52.7317 10.6636C53.245 11.573 53.5017 12.629 53.5017 13.8316ZM47.5617 9.95965C46.6817 9.95965 45.9337 10.2236 45.3177 10.7516C44.7164 11.265 44.3497 11.9543 44.2177 12.8196H50.8837C50.7664 11.969 50.407 11.2796 49.8057 10.7516C49.2044 10.2236 48.4564 9.95965 47.5617 9.95965ZM55.6504 3.31565H58.4004V19.6396H55.6504V3.31565ZM68.029 7.75965C69.173 7.75965 70.1923 8.00898 71.087 8.50765C71.9963 9.00631 72.7077 9.71031 73.221 10.6196C73.7343 11.529 73.991 12.5776 73.991 13.7656C73.991 14.9536 73.7343 16.0096 73.221 16.9336C72.7077 17.843 71.9963 18.547 71.087 19.0456C70.1923 19.5443 69.173 19.7936 68.029 19.7936C66.445 19.7936 65.191 19.2656 64.267 18.2096V23.9076H61.517V7.89165H64.135V9.43165C64.5897 8.87431 65.147 8.45631 65.807 8.17765C66.4817 7.89898 67.2223 7.75965 68.029 7.75965ZM67.721 17.4396C68.733 17.4396 69.5617 17.1023 70.207 16.4276C70.867 15.753 71.197 14.8656 71.197 13.7656C71.197 12.6656 70.867 11.7783 70.207 11.1036C69.5617 10.429 68.733 10.0916 67.721 10.0916C67.061 10.0916 66.467 10.2456 65.939 10.5536C65.411 10.847 64.993 11.2723 64.685 11.8296C64.377 12.387 64.223 13.0323 64.223 13.7656C64.223 14.499 64.377 15.1443 64.685 15.7016C64.993 16.259 65.411 16.6916 65.939 16.9996C66.467 17.293 67.061 17.4396 67.721 17.4396Z" fill="#333333"></path></svg> 