<?xml version="1.0" encoding="UTF-8"?> <svg xmlns="http://www.w3.org/2000/svg" width="15" height="19" viewBox="0 0 15 19" fill="none"><path d="M5.11657 11.8689L5.95218 11.6771C5.96963 11.6731 5.99916 11.6665 6.03406 11.6552C6.26487 11.5938 6.46264 11.4459 6.58571 11.2428C6.70879 11.0396 6.74755 10.7969 6.69383 10.566L6.69047 10.5513C6.66285 10.4407 6.61459 10.3361 6.54818 10.2431C6.45462 10.1253 6.33881 10.0267 6.20722 9.9528C6.05231 9.86524 5.8902 9.79085 5.72264 9.73043L4.80648 9.39822C4.29236 9.20847 3.77824 9.02405 3.25875 8.84363C2.92249 8.72512 2.63724 8.6206 2.38958 8.54403C2.34244 8.53109 2.29566 8.51689 2.2493 8.50142C1.94996 8.41088 1.73921 8.37293 1.56135 8.3716C1.44247 8.36721 1.32406 8.38857 1.21435 8.43418C1.09973 8.4834 0.996823 8.55599 0.91232 8.64723C0.870398 8.69444 0.830968 8.74377 0.794191 8.79503C0.722686 8.904 0.663705 9.02057 0.618345 9.14256C0.448134 9.64124 0.363288 10.1647 0.367325 10.6911C0.370681 11.1665 0.383433 11.777 0.647205 12.1911C0.710967 12.2976 0.796207 12.3895 0.897555 12.4608C1.08548 12.5892 1.27475 12.6066 1.47275 12.6205C1.76807 12.6412 2.05332 12.5699 2.33857 12.504L5.11455 11.8682L5.11657 11.8689ZM14.4392 7.46882C14.2111 6.99389 13.9044 6.56024 13.5318 6.18588C13.4836 6.13827 13.432 6.09421 13.3774 6.05406C13.3269 6.01651 13.2745 5.98162 13.2203 5.94953C13.1646 5.91923 13.1072 5.89189 13.0485 5.86764C12.9326 5.82245 12.8085 5.80203 12.6841 5.80772C12.5653 5.81438 12.4492 5.84767 12.3438 5.90293C12.1847 5.98149 12.0122 6.10798 11.7827 6.31903C11.7511 6.35032 11.7115 6.38561 11.6753 6.4189C11.4867 6.59533 11.2759 6.81303 11.0256 7.06603C10.6383 7.45417 10.2578 7.84431 9.87856 8.23778L9.20067 8.93551C9.07689 9.06276 8.96417 9.20018 8.86374 9.34629C8.77775 9.46992 8.71688 9.609 8.68454 9.75573C8.66639 9.86846 8.66912 9.98352 8.69259 10.0953L8.69594 10.1099C8.74951 10.3406 8.89125 10.5418 9.0913 10.6709C9.29135 10.8001 9.53411 10.8472 9.76848 10.8023C9.7967 10.7984 9.8247 10.793 9.85238 10.7863L13.4647 9.95813C13.7499 9.89288 14.0385 9.83296 14.2942 9.68516C14.466 9.58729 14.6291 9.48943 14.7412 9.29236C14.8009 9.18381 14.8371 9.06407 14.8473 8.94083C14.903 8.45216 14.6459 7.89757 14.4392 7.46882ZM7.97242 8.97545C8.23418 8.64922 8.23418 8.16321 8.257 7.76508C8.33619 6.43687 8.41875 5.10866 8.4852 3.77979C8.51003 3.27647 8.5644 2.7798 8.53419 2.27249C8.50936 1.85438 8.50668 1.3737 8.24022 1.03016C7.7704 0.42431 6.76766 0.474243 6.08373 0.568782C5.87275 0.597691 5.66332 0.636795 5.45618 0.685957C5.24812 0.735224 5.0414 0.789152 4.84004 0.853732C4.18363 1.06678 3.26076 1.45825 3.10505 2.20857C3.01646 2.63267 3.22586 3.06608 3.38695 3.45356C3.5836 3.92226 3.8514 4.34503 4.09571 4.78643C4.74205 5.95219 5.3998 7.1113 6.05554 8.27107C6.25219 8.61727 6.46496 9.05534 6.84417 9.2351C6.86968 9.24576 6.89518 9.25508 6.92136 9.26373C7.09117 9.32764 7.27708 9.33963 7.4536 9.29902L7.48515 9.29236C7.64891 9.24775 7.79657 9.1592 7.91268 9.03737C7.93416 9.0174 7.95296 8.99742 7.97242 8.97545ZM7.65898 12.5313C7.55682 12.3888 7.41182 12.2819 7.24473 12.2261C7.07764 12.1702 6.89703 12.1683 6.72873 12.2204C6.68913 12.2333 6.65055 12.2491 6.61329 12.2677C6.55561 12.2969 6.50059 12.3309 6.44885 12.3695C6.3011 12.485 6.16911 12.6191 6.05621 12.7683C6.02735 12.805 6.0005 12.8536 5.9656 12.8855L5.38436 13.6778C5.05549 14.1225 4.72997 14.5679 4.40847 15.02C4.19773 15.3122 4.01651 15.5592 3.87221 15.7769C3.84536 15.8182 3.81717 15.8635 3.79167 15.9008C3.61917 16.1644 3.52185 16.3575 3.47151 16.5293C3.43391 16.6434 3.422 16.7643 3.43661 16.8835C3.45272 17.0073 3.495 17.1265 3.56011 17.2337C3.59501 17.2869 3.6326 17.3388 3.67287 17.3888C3.75985 17.4881 3.85778 17.5774 3.96483 17.6551C4.36619 17.932 4.80514 18.1311 5.26691 18.2849C5.65149 18.4114 6.05084 18.4873 6.45489 18.5099C6.52402 18.5133 6.59315 18.5119 6.66161 18.5059C6.72509 18.5 6.78825 18.4912 6.85088 18.4793C6.91354 18.4648 6.97538 18.4471 7.03613 18.426C7.15423 18.3821 7.26171 18.3141 7.35158 18.2263C7.43682 18.1418 7.5026 18.0399 7.54354 17.9274C7.61066 17.7609 7.65495 17.5506 7.68448 17.2376C7.6865 17.193 7.69321 17.1398 7.69791 17.0912C7.72073 16.8315 7.73147 16.5253 7.74758 16.1671C7.77644 15.6152 7.79858 15.0659 7.81603 14.5153L7.85362 13.5353C7.86235 13.3103 7.85496 13.0599 7.79187 12.8356C7.76413 12.7278 7.71927 12.6251 7.65898 12.5313ZM14.2184 14.0646C14.0976 13.9321 13.9257 13.8009 13.6546 13.6385C13.6157 13.6165 13.5694 13.5879 13.5271 13.5626C13.3016 13.4275 13.0297 13.2863 12.7123 13.1152C12.2243 12.8489 11.7364 12.5906 11.2431 12.3336L10.3725 11.8755C10.3276 11.8622 10.2819 11.8303 10.239 11.8096C10.0716 11.7248 9.89381 11.6619 9.71009 11.6226C9.6468 11.6104 9.58258 11.6037 9.51814 11.6026C9.47641 11.6024 9.43471 11.6048 9.3933 11.6099C9.21903 11.6366 9.05771 11.7172 8.93236 11.8402C8.80701 11.9633 8.72404 12.1224 8.69527 12.295C8.68252 12.4048 8.68655 12.516 8.70803 12.6239C8.75031 12.8542 8.85367 13.0813 8.96106 13.2803L9.42552 14.1452C9.68459 14.6325 9.94635 15.1172 10.2148 15.6005C10.388 15.9154 10.5323 16.1851 10.6672 16.4088C10.6927 16.4507 10.7216 16.496 10.7437 16.5353C10.9081 16.8036 11.0397 16.9727 11.1733 17.0945C11.2622 17.1794 11.369 17.2437 11.486 17.2828C11.6029 17.322 11.7272 17.335 11.8498 17.3209C11.9137 17.3132 11.9771 17.302 12.0397 17.2876C12.1681 17.2535 12.2922 17.205 12.4096 17.1431C12.7628 16.9467 13.0885 16.7049 13.3781 16.4241C13.7257 16.0845 14.0331 15.7144 14.2721 15.2909C14.3056 15.231 14.3338 15.1691 14.358 15.1045C14.3805 15.0454 14.4 14.9852 14.4164 14.9241C14.4305 14.8615 14.4412 14.7989 14.4486 14.7357C14.4606 14.6114 14.4462 14.486 14.4063 14.3675C14.3669 14.2539 14.3027 14.1502 14.2184 14.0639V14.0646Z" fill="#333333"></path></svg> 